<svg width="2500" height="2500" viewBox="0 0 2500 2500" fill="none" xmlns="http://www.w3.org/2000/svg">
<path fill-rule="evenodd" clip-rule="evenodd" d="M787.524 2063.05C787.524 2073.01 782.557 2082.93 772.609 2082.93C757.694 2082.93 752.713 2063.05 712.935 2063.05C688.072 2063.05 668.189 2077.96 668.189 2102.81C668.189 2167.48 807.42 2137.65 807.42 2237.1C807.42 2281.84 772.609 2326.59 707.955 2326.59C668.189 2326.59 628.398 2311.68 628.398 2291.78C628.398 2281.82 633.366 2276.87 643.313 2276.87C653.261 2276.87 673.144 2296.78 707.955 2296.78C747.733 2296.78 767.641 2271.9 767.641 2237.09C767.641 2167.48 628.398 2202.28 628.398 2107.79C628.398 2072.98 663.209 2033.19 717.902 2033.19C752.726 2033.22 787.524 2048.13 787.524 2063.05ZM926.78 2102.83C961.591 2102.83 981.474 2117.74 981.474 2132.67C981.474 2137.66 976.507 2147.59 966.546 2147.59C956.598 2147.59 951.631 2137.65 926.78 2137.65C882.022 2137.65 862.126 2177.42 862.126 2217.22C862.126 2252.03 882.022 2296.79 926.78 2296.79C951.644 2296.79 956.611 2286.83 966.546 2286.83C976.507 2286.83 981.474 2291.8 981.474 2301.74C981.474 2311.68 961.591 2326.59 926.78 2326.59C857.159 2326.59 827.315 2276.87 827.315 2217.21C827.315 2157.55 857.146 2102.83 926.78 2102.83ZM1051.1 2306.72C1051.1 2321.64 1041.15 2326.61 1031.2 2326.61C1021.27 2326.61 1011.3 2321.64 1011.3 2306.72V2122.74C1011.3 2112.77 1021.27 2102.83 1031.2 2102.83C1041.15 2102.83 1051.1 2112.79 1051.1 2122.74V2306.72ZM1031.2 2033.22C1046.12 2033.22 1056.06 2038.21 1056.06 2053.1C1056.06 2063.06 1046.1 2073.01 1031.2 2073.01C1021.27 2073.01 1011.3 2063.05 1011.3 2053.1C1011.3 2038.2 1021.27 2033.22 1031.2 2033.22ZM1115.74 2202.3C1115.74 2172.46 1135.63 2132.67 1180.39 2137.66C1220.17 2137.66 1235.08 2172.47 1235.08 2202.3H1115.74ZM1250 2232.12C1269.9 2232.12 1274.86 2222.19 1274.86 2212.24C1274.86 2157.55 1240.05 2102.83 1180.39 2102.83C1115.74 2102.83 1080.94 2157.55 1080.94 2217.22C1080.94 2276.88 1110.77 2326.61 1180.39 2326.61C1225.14 2326.61 1269.9 2301.76 1269.9 2281.85C1269.9 2271.91 1259.93 2266.96 1254.98 2266.96C1240.05 2266.96 1230.12 2296.8 1180.39 2296.8C1140.6 2296.8 1115.74 2266.96 1115.74 2232.14L1250 2232.12ZM1304.71 2122.74C1304.71 2112.77 1309.67 2102.83 1319.62 2102.83C1334.54 2102.83 1339.5 2112.79 1339.5 2122.74V2132.67C1354.42 2112.79 1379.3 2102.83 1399.19 2102.83C1434 2102.83 1478.76 2127.7 1478.76 2187.39V2306.72C1478.76 2321.64 1468.8 2326.61 1458.88 2326.61C1448.92 2326.61 1438.97 2321.64 1438.97 2306.72V2187.39C1438.97 2152.58 1414.12 2137.66 1389.24 2137.66C1364.39 2137.66 1339.52 2152.58 1339.52 2187.39V2306.72C1339.52 2321.64 1334.55 2326.61 1319.63 2326.61C1309.67 2326.61 1304.72 2321.64 1304.72 2306.72L1304.71 2122.74ZM1608.04 2102.83C1647.81 2102.83 1667.7 2117.74 1667.7 2132.67C1667.7 2137.66 1662.74 2147.59 1652.79 2147.59C1637.9 2147.59 1632.91 2137.65 1608.06 2137.65C1563.3 2137.65 1548.37 2177.42 1548.37 2217.22C1548.37 2252.03 1563.28 2296.79 1608.06 2296.79C1632.91 2296.79 1642.87 2286.83 1652.79 2286.83C1662.75 2286.83 1667.7 2291.8 1667.7 2301.74C1667.7 2311.68 1647.82 2326.59 1608.04 2326.59C1543.4 2326.59 1508.59 2276.87 1508.59 2217.21C1508.59 2157.55 1543.4 2102.83 1608.04 2102.83ZM1722.42 2202.3C1722.42 2172.46 1737.34 2132.67 1782.11 2137.66C1821.88 2137.66 1841.77 2172.47 1841.77 2202.3H1722.42ZM1856.67 2232.12C1871.59 2232.12 1876.56 2222.19 1876.56 2212.24C1876.56 2157.55 1841.75 2102.83 1782.1 2102.83C1722.41 2102.83 1682.62 2157.55 1682.62 2217.22C1682.62 2276.88 1717.46 2326.61 1787.06 2326.61C1826.83 2326.61 1871.6 2301.76 1871.6 2281.85C1871.6 2271.91 1866.63 2266.96 1861.64 2266.96C1846.75 2266.96 1831.8 2296.8 1787.06 2296.8C1747.27 2296.8 1722.42 2266.96 1722.42 2232.14L1856.67 2232.12Z" fill="url(#paint0_linear_1220_53)"/>
<path fill-rule="evenodd" clip-rule="evenodd" d="M2090.41 1013.79C2090.41 1476.28 1717.46 1854.2 1250 1854.2C787.524 1854.2 409.598 1476.27 409.598 1013.79C409.598 546.351 787.524 173.393 1250 173.393C1717.46 173.393 2090.41 546.351 2090.41 1013.79Z" fill="url(#paint1_linear_1220_53)"/>
<path fill-rule="evenodd" clip-rule="evenodd" d="M1871.6 1202.75C1886.52 1192.8 1891.48 1172.92 1891.48 1153.04C1891.48 1108.28 1851.72 1068.49 1801.99 1068.49C1787.08 1068.49 1772.15 1073.47 1762.2 1078.44C1737.35 1058.55 1712.48 1033.69 1682.63 1008.83C1866.65 854.668 1961.13 710.458 1916.36 630.888C1871.59 551.319 1697.55 561.266 1478.76 640.836C1438.97 402.14 1359.4 238.047 1264.94 238.047C1235.1 238.047 1210.22 257.93 1185.36 287.773C1175.41 282.806 1165.46 282.806 1155.52 282.806C1105.8 282.806 1070.98 317.616 1070.98 367.342C1070.98 397.186 1080.93 422.049 1105.79 436.964C1080.93 496.638 1066.01 566.26 1051.08 640.849C817.355 556.312 633.365 541.397 588.62 620.966C538.894 700.523 643.313 854.681 832.283 1008.84C638.346 1167.97 533.913 1322.12 578.672 1401.69C603.535 1446.45 668.189 1461.38 757.694 1456.39C772.609 1481.26 802.439 1501.15 832.283 1501.15C877.041 1501.15 916.82 1466.34 921.787 1421.58C961.578 1411.64 1006.32 1396.73 1051.08 1381.81C1095.84 1620.48 1175.4 1784.61 1264.93 1784.61C1359.39 1784.61 1438.96 1620.49 1478.75 1381.81C1702.53 1461.38 1881.55 1471.3 1926.28 1396.73C1951.16 1351.94 1931.28 1282.33 1871.6 1202.75ZM1901.43 640.836C1936.24 695.542 1826.83 829.805 1637.89 974.016C1598.1 939.205 1553.32 909.375 1503.6 879.531C1503.6 814.877 1498.63 755.203 1488.68 700.51C1702.54 610.992 1871.6 581.162 1901.43 640.836ZM1369.35 1227.63C1394.2 1212.71 1419.07 1197.78 1438.96 1182.88C1438.96 1222.66 1433.99 1262.42 1429.02 1297.26C1399.18 1282.35 1364.38 1267.42 1329.54 1252.5C1339.5 1242.56 1354.42 1237.57 1364.38 1227.64H1369.35V1227.63ZM1339.5 1172.92H1334.54C1309.66 1187.84 1284.81 1202.75 1259.93 1212.7C1230.1 1197.78 1200.26 1182.87 1165.45 1162.97L1090.86 1118.21C1090.86 1083.4 1085.88 1048.61 1085.88 1013.78V1008.81C1085.88 974.003 1090.86 939.192 1090.86 904.382C1110.76 889.453 1135.62 874.538 1160.48 864.603C1190.31 844.708 1225.12 824.825 1259.93 804.929C1289.78 819.845 1314.65 839.74 1344.5 854.642C1379.31 874.538 1409.11 894.421 1443.95 914.316V1108.25C1409.11 1128.16 1374.32 1148.06 1339.5 1172.92ZM1190.33 1252.49C1160.5 1267.41 1130.65 1282.33 1100.82 1292.26C1095.85 1262.41 1095.85 1227.61 1095.85 1197.77C1105.8 1202.74 1115.75 1207.72 1130.67 1217.67H1135.65C1155.52 1232.59 1170.44 1242.54 1190.33 1252.49ZM1021.27 1013.79C1021.27 1033.69 1021.27 1053.59 1026.23 1078.44C991.422 1053.57 956.611 1033.69 926.78 1008.83C956.611 988.944 991.422 969.049 1026.23 944.186C1021.27 964.068 1021.27 983.964 1021.27 1003.86V1013.79ZM1095.84 824.825C1095.84 790.014 1095.84 760.184 1100.81 730.34C1130.64 740.288 1160.48 755.203 1190.31 770.118C1170.43 780.066 1145.57 794.982 1125.67 804.942C1115.74 814.877 1105.79 819.858 1095.84 824.825ZM1329.56 770.118C1364.39 755.203 1399.19 735.308 1429.03 725.373C1434 760.184 1438.97 794.982 1438.97 834.773C1419.09 824.825 1399.2 809.91 1379.31 799.962C1359.39 790.014 1344.5 780.079 1329.56 770.118ZM1508.59 954.121C1533.44 974.016 1563.28 993.899 1588.16 1008.83C1563.28 1028.71 1538.41 1048.61 1508.59 1063.53V1013.79V954.121ZM1145.58 451.866H1155.52C1200.27 451.866 1240.05 417.056 1240.05 367.317C1240.05 337.486 1230.1 312.61 1205.24 297.695C1225.14 272.832 1245.02 257.917 1264.93 257.917C1334.54 257.917 1394.2 422.023 1424.04 660.719C1369.35 680.601 1314.65 705.477 1259.95 735.295C1210.22 710.432 1155.52 685.582 1105.8 665.673C1114.83 593.682 1128.12 522.288 1145.58 451.866ZM598.568 630.888C638.346 571.214 812.387 601.058 1041.15 700.51L1026.23 864.616C971.526 899.427 921.8 939.205 877.054 974.016C683.105 824.825 568.737 690.562 598.568 630.888ZM911.852 1371.82C896.937 1346.97 867.094 1327.09 832.296 1327.09C787.537 1327.09 747.746 1366.86 747.746 1411.63V1416.6C668.189 1431.51 613.483 1426.56 593.6 1396.71C558.789 1332.07 678.137 1197.8 877.041 1048.62C921.8 1083.43 971.526 1118.23 1026.22 1153.05C1031.19 1212.72 1036.17 1267.43 1041.13 1322.12C996.389 1341.99 951.631 1356.91 911.852 1371.82ZM1264.93 1769.66C1195.29 1769.66 1135.62 1600.57 1105.79 1356.91C1155.5 1337.03 1210.21 1312.15 1259.93 1287.3C1314.65 1317.14 1369.35 1341.99 1424.03 1361.9C1394.2 1600.57 1334.54 1769.66 1264.93 1769.66ZM1911.37 1386.75C1876.56 1446.44 1707.5 1416.6 1488.68 1322.11C1498.64 1267.42 1503.6 1207.74 1503.6 1143.1C1553.32 1113.26 1598.08 1078.45 1637.89 1048.62C1667.7 1068.5 1697.55 1093.36 1727.38 1118.23C1722.41 1128.17 1717.44 1143.1 1717.44 1153.05C1717.44 1202.76 1757.21 1242.56 1801.98 1242.56C1816.9 1242.56 1831.8 1237.57 1841.75 1232.59C1901.43 1297.25 1931.28 1351.94 1911.37 1386.75Z" fill="white"/>
<path fill-rule="evenodd" clip-rule="evenodd" d="M1259.95 924.277C1215.2 924.277 1175.41 959.101 1175.41 1008.83C1175.41 1058.55 1215.19 1093.36 1259.95 1093.36C1309.67 1093.36 1349.47 1058.55 1349.47 1008.83C1349.47 959.101 1309.67 924.277 1259.95 924.277Z" fill="white"/>
<defs>
<linearGradient id="paint0_linear_1220_53" x1="628.398" y1="2033.19" x2="697.06" y2="2428.16" gradientUnits="userSpaceOnUse">
<stop stop-color="#8844EE"/>
<stop offset="1" stop-color="#B07DFB"/>
</linearGradient>
<linearGradient id="paint1_linear_1220_53" x1="409.598" y1="173.393" x2="1523.93" y2="1680.28" gradientUnits="userSpaceOnUse">
<stop stop-color="#8844EE"/>
<stop offset="1" stop-color="#B07DFB"/>
</linearGradient>
</defs>
</svg>
