<svg width="2500" height="2500" viewBox="0 0 2500 2500" fill="none" xmlns="http://www.w3.org/2000/svg">
<g clip-path="url(#clip0_1220_2721)">
<path d="M1767.55 884.915C1794.8 944.246 1825.21 1002.1 1852.24 1061.54C1904.26 1175.93 1943.76 1296.71 1960.17 1421.29C1976.58 1545.87 1969.44 1674.51 1930.53 1793.96C1886.53 1928.8 1803 2048.76 1700.66 2146.94C1579.58 2263.09 1424.17 2352.63 1256.52 2359.24C1147.28 2363.54 1038.52 2332.31 941.786 2281.39C860.488 2238.6 786.27 2181.58 727.056 2111.35C667.842 2041.11 623.875 1957.48 603.515 1867.89C578.443 1757.57 589.791 1640.45 627.733 1533.88C654.871 1457.66 695.097 1386.69 723.734 1311.03C755.031 1228.35 772.504 1140.06 813.969 1061.99C851.542 991.192 907.911 930.723 937.853 856.379C955.736 811.977 963.493 764.286 975.041 717.826C986.59 671.365 1002.76 624.57 1034.21 588.477C1072.11 544.987 1129.13 521.414 1186.42 514.795C1243.72 508.175 1301.72 517.113 1357.96 529.941C1402.73 540.15 1446.95 552.828 1490.22 568.218C1527.15 581.356 1563.74 596.653 1595.68 619.381C1639.19 650.344 1672.33 693.943 1698.73 740.37C1725.13 786.797 1745.34 836.396 1767.63 884.924L1767.55 884.915Z" fill="#020204"/>
<path d="M1286.47 2360.29C1332.5 2362.97 1378.44 2367.44 1424.05 2374.33C1464.15 2380.42 1503.97 2388.27 1543.38 2397.86C1605.11 2412.82 1666.63 2431.9 1730.13 2433.71C1746.84 2434.19 1763.6 2433.44 1780 2429.81C1796.4 2426.18 1812.15 2419.56 1825.23 2409.14C1844.73 2393.6 1857.03 2370.16 1861.69 2345.65C1866.35 2321.14 1863.43 2295.64 1856.25 2271.76C1841.9 2224.01 1811.07 2183.26 1785.65 2140.41C1771.05 2115.87 1758.04 2090.37 1742.22 2066.6C1726.4 2042.83 1707.49 2020.58 1683.47 2005.09C1650.27 1983.69 1609.1 1976.71 1569.79 1980.63C1530.49 1984.54 1492.8 1998.74 1457.72 2016.91C1408.55 2042.37 1362.27 2077.33 1335.46 2125.78C1326.13 2142.64 1319.35 2160.76 1311.43 2178.33C1303.5 2195.91 1294.22 2213.2 1280.8 2227.02C1265.82 2242.44 1246.39 2252.83 1230.9 2267.72C1223.16 2275.25 1216.38 2283.82 1212.49 2293.81C1208.6 2303.79 1207.54 2315.2 1211.15 2325.31C1213.64 2332.26 1218.18 2338.35 1223.79 2343.14C1229.39 2347.93 1236.02 2351.42 1242.98 2353.85C1256.87 2358.74 1271.85 2359.46 1286.55 2360.31L1286.47 2360.29Z" fill="#020204"/>
<path d="M1149.66 2357.32C1111.3 2358.21 1073.34 2365.07 1035.85 2372.84C999.937 2380.26 964.188 2388.53 928.706 2397.84C868.839 2413.56 808.897 2432.38 747.014 2433.69C730.729 2434.03 714.327 2433.15 698.453 2429.47C682.578 2425.8 667.214 2419.26 654.478 2409.11C635.021 2393.59 622.653 2370.19 618.076 2345.74C613.498 2321.29 616.293 2295.83 623.389 2271.98C637.59 2224.28 668.043 2183.45 692.98 2140.38C707.147 2115.91 719.65 2090.46 734.972 2066.68C750.294 2042.91 768.746 2020.6 792.378 2005.06C824.58 1983.89 864.739 1976.72 903.091 1980.49C941.443 1984.26 978.196 1998.4 1012.02 2016.88C1059.77 2042.96 1103.38 2078.85 1130.98 2125.66C1150.36 2158.55 1161.53 2196.17 1184.17 2226.9C1196.37 2243.46 1211.79 2257.75 1221.83 2275.63C1226.9 2284.57 1230.62 2294.42 1231.48 2304.67C1232.34 2314.92 1230.22 2325.57 1224.45 2334.08C1220.64 2339.72 1215.35 2344.27 1209.45 2347.62C1203.54 2350.98 1197.02 2353.19 1190.37 2354.57C1176.98 2357.35 1163.34 2356.91 1149.74 2357.25L1149.66 2357.32ZM935.317 759.944C929.928 695.089 931.133 629.875 928.79 564.837C926.463 502.301 920.706 439.798 922.806 377.254C924.949 313.655 935.61 249.219 963.928 192.064C992.246 134.908 1038.24 86.5565 1094.35 56.3135C1147.07 27.8614 1207.87 15.7022 1267.86 16.355C1349.2 17.242 1430.74 41.8112 1496.59 89.5272C1537.89 119.419 1572.62 157.955 1600.02 200.942C1623.39 237.637 1641.55 277.713 1652.95 319.772C1676.32 405.965 1670.77 496.744 1675.32 585.85C1679.63 670.303 1693.15 754.554 1688.55 838.99C1687.54 857.401 1685.57 876.095 1677.39 892.547C1669.42 908.573 1655.9 921.46 1640.36 930.347C1624.82 939.234 1607.33 944.288 1589.65 947.017C1554.28 952.473 1518.1 948.874 1482.47 952.18C1430.75 956.975 1381.42 976.155 1330.1 984.096C1269.01 993.553 1206.61 986.858 1144.76 984.381C1119.99 983.393 1095.13 983.084 1070.55 979.996C1045.96 976.908 1021.43 970.958 999.552 959.293C986.163 952.113 973.669 942.765 963.61 931.259C953.552 919.753 945.869 906.154 942.045 891.284C936.296 869.083 939.325 845.71 939.409 822.773C939.493 801.802 937.049 780.906 935.225 760.011L935.317 759.944Z" fill="#020204"/>
<path d="M1032.65 734.956C1023.89 745.918 1018.19 759.115 1014.74 772.73C1011.29 786.345 1010.04 800.412 1009.49 814.437C1008.42 842.496 1010.13 871.091 1002.71 898.17C994.764 927.125 976.973 952.196 959.551 976.648C929.383 1018.99 898.881 1062.42 884.01 1112.23C874.997 1142.4 871.993 1174.35 875.24 1205.66C841.474 1255.25 812.227 1307.92 788.018 1362.82C751.314 1446.02 726.126 1534.6 717.264 1625.08C706.418 1735.89 720.594 1849.87 764.352 1952.26C795.984 2026.28 843.165 2094.05 903.985 2146.79C934.906 2173.61 969.258 2196.5 1006.08 2214.55C1133.38 2277.12 1290.71 2277.23 1415.9 2210.53C1481.32 2175.67 1536.55 2124.69 1589.79 2073.11C1621.86 2042.05 1653.76 2010.25 1678.22 1972.89C1725.31 1900.99 1741.71 1813.59 1751.9 1728.25C1769.73 1579.02 1770.29 1421.39 1704.87 1286.09C1682.28 1239.42 1652.39 1196.65 1616.33 1159.39C1606.75 1094.28 1587.82 1030.54 1560.33 970.749C1540.49 927.61 1516.24 886.547 1497.82 842.798C1490.25 824.831 1483.59 806.437 1475.28 788.847C1466.97 771.257 1456.53 754.328 1442.44 740.855C1428.02 727.048 1410.06 717.273 1391.09 711.014C1372.13 704.754 1352.18 701.918 1332.27 700.913C1292.39 698.905 1252.43 704.118 1212.55 702.537C1180.79 701.282 1149.13 695.708 1117.4 697.583C1101.54 698.52 1085.69 701.349 1070.96 707.332C1056.23 713.315 1042.66 722.537 1032.75 734.947L1032.65 734.956Z" fill="#FDFDFB"/>
<g filter="url(#filter0_f_1220_2721)">
<path d="M1013.1 883.794C1027.35 925.117 1056.03 960.381 1089.97 987.929C1101.27 997.093 1113.25 1005.54 1126.51 1011.5C1139.76 1017.47 1154.39 1020.88 1168.87 1019.64C1183.05 1018.43 1196.54 1012.86 1208.95 1005.86C1221.36 998.867 1232.85 990.406 1244.88 982.791C1265.49 969.737 1287.55 959.193 1308.95 947.477C1334.74 933.36 1359.75 917.351 1381.46 897.602C1391.41 888.522 1400.68 878.623 1411.66 870.824C1422.64 863.024 1435.78 857.384 1449.21 858.296C1459.29 858.982 1468.74 863.267 1478.6 865.393C1483.62 866.455 1488.64 866.982 1493.64 866.213C1498.64 865.443 1503.52 863.334 1507.01 859.685C1511.3 855.225 1513.17 848.807 1512.87 842.614C1512.57 836.422 1510.49 830.455 1507.6 824.982C1501.82 814.036 1493.08 804.605 1489.19 792.865C1485.72 782.404 1486.43 771.107 1486.73 760.111C1487.03 749.115 1486.8 737.6 1481.71 727.835C1477.84 720.387 1471.36 714.487 1463.95 710.563C1456.54 706.638 1448.22 704.705 1439.88 703.835C1423.19 702.27 1406.46 705.508 1389.72 706.454C1367.5 707.709 1345.19 704.931 1322.97 706.27C1295.27 707.943 1268.1 715.977 1240.34 716.027C1208.66 716.086 1177.01 705.717 1145.71 710.671C1132.28 712.797 1119.48 717.684 1106.58 721.985C1093.69 726.287 1080.36 730.077 1066.77 729.885C1051.34 729.659 1036.4 724.32 1021 723.215C1013.3 722.663 1005.42 723.215 998.188 725.918C990.958 728.621 984.422 733.651 980.883 740.504C978.849 744.437 977.845 748.847 977.652 753.266C977.46 757.684 978.071 762.111 979.142 766.404C981.276 774.99 985.201 782.998 988.347 791.233C1000 820.974 1002.51 853.56 1012.92 883.753L1013.1 883.794Z" fill="black" fill-opacity="0.26"/>
</g>
<g opacity="0.3" filter="url(#filter1_f_1220_2721)">
<path d="M973.367 766.024C1001.05 783.136 1025.89 804.133 1046.76 828.089C1066.11 850.319 1082.57 875.525 1107.84 891.989C1125.69 903.613 1147.13 910.165 1168.88 912.154C1194.42 914.489 1220.26 910.712 1244.88 904.045C1267.7 897.863 1289.76 889.168 1310.01 877.683C1348.48 855.823 1380.63 823.781 1422.98 809.413C1432.24 806.275 1441.89 804.032 1450.82 800.163C1459.75 796.294 1468.14 790.497 1472.41 782.296C1476.59 774.418 1476.34 765.322 1477.68 756.666C1479.1 747.417 1482.32 738.46 1484.07 729.256C1485.83 720.053 1486.04 710.202 1481.73 701.739C1478.15 694.724 1471.65 689.19 1464.16 685.667C1456.67 682.145 1448.26 680.549 1439.86 680.164C1423.07 679.393 1406.48 683.363 1389.75 684.773C1367.57 686.638 1345.24 684.002 1322.99 684.619C1295.31 685.39 1268.03 691.171 1240.36 692.366C1208.8 693.738 1177.32 689.144 1145.74 688.126C1132.08 687.679 1118.33 687.895 1104.87 690.076C1091.4 692.258 1078.19 696.412 1066.79 703.38C1055.74 710.14 1046.73 719.313 1036.61 727.198C1031.54 731.145 1026.16 734.791 1020.25 737.566C1014.35 740.341 1007.87 742.229 1001.26 742.522C997.852 742.676 994.413 742.406 991.049 742.884C988.227 743.321 985.527 744.269 983.104 745.672C980.682 747.075 978.585 748.906 976.935 751.06C975.285 753.213 974.114 755.646 973.49 758.218C972.866 760.791 972.802 763.452 973.3 766.047L973.367 766.024Z" fill="black"/>
</g>
<path d="M1045.43 388.075C1030.54 388.886 1016.27 395.773 1005.37 405.958C994.463 416.142 986.789 429.489 982.053 443.648C972.597 471.967 974.731 502.661 976.864 532.352C978.814 559.315 980.798 586.788 990.898 611.867C995.944 624.403 1003.03 636.136 1012.49 645.876C1021.94 655.617 1033.84 662.964 1046.95 666.245C1059.25 669.324 1072.37 668.688 1084.46 664.889C1096.56 661.09 1107.59 654.177 1116.65 645.324C1129.87 632.395 1138.77 615.483 1143.87 597.708C1148.97 579.934 1150.43 561.29 1150.16 542.812C1149.83 519.682 1146.82 496.452 1139.57 474.494C1132.32 452.535 1120.77 431.79 1104.65 415.196C1096.84 407.163 1087.93 400.091 1077.87 395.137C1067.81 390.183 1056.59 387.397 1045.4 387.999L1045.43 388.075Z" fill="url(#paint0_radial_1220_2721)"/>
<path d="M1309.19 388.074C1285.92 403.974 1266.42 426.359 1256.89 452.928C1244.87 486.418 1249.47 523.891 1261.07 557.532C1272.95 591.984 1292.82 624.813 1322.83 645.499C1337.83 655.842 1355.2 662.93 1373.29 665.081C1391.38 667.232 1410.19 664.286 1426.34 655.876C1446.03 645.616 1461.05 627.65 1470.38 607.507C1479.7 587.365 1483.68 565.08 1484.92 542.904C1486.59 514.661 1483.75 485.95 1474.46 459.221C1464.38 430.183 1446.01 403.405 1420.29 386.693C1407.41 378.342 1392.74 372.601 1377.53 370.501C1362.32 368.4 1346.53 369.974 1332.21 375.539C1324.05 378.718 1316.42 383.129 1309.2 388.091L1309.19 388.074Z" fill="url(#paint1_radial_1220_2721)"/>
<g opacity="0.3" filter="url(#filter2_f_1220_2721)">
<path d="M1040.48 629.014L997.501 668.219C989.936 675.834 982.354 683.985 978.965 694.161C975.953 703.198 976.522 713.014 975.032 722.445C974.53 725.676 973.777 728.889 973.76 732.153C973.733 733.789 973.953 735.419 974.413 736.99C974.89 738.554 975.668 740.027 976.798 741.224C978.656 743.207 981.3 744.287 983.961 744.822C986.622 745.358 989.359 745.425 992.062 745.718C1004.25 747.032 1015.48 752.939 1025.57 759.902L1055.28 781.534C1078.12 796.045 1105.43 802.496 1132.48 803.526C1159.54 804.555 1186.52 800.43 1213.07 795.116C1234.16 790.898 1255.19 785.911 1275.2 778.011C1305.86 765.927 1333.48 747.324 1359.87 727.617C1371.86 718.663 1383.69 709.433 1394.46 699.039C1398.12 695.508 1401.66 691.843 1405.57 688.613C1409.49 685.382 1413.84 682.571 1418.68 681.014C1426.04 678.646 1434.04 679.324 1441.67 680.596C1447.42 681.558 1453.19 682.855 1459.01 682.604C1461.92 682.487 1464.84 681.985 1467.55 680.897C1470.25 679.809 1472.75 678.135 1474.6 675.876C1477.02 672.855 1478.32 669.098 1478.3 665.232C1478.32 661.399 1477.13 657.616 1475.2 654.311C1471.31 647.7 1464.59 643.24 1457.59 640.127C1448 635.859 1437.62 633.767 1427.41 631.29C1396.07 623.725 1365.61 612.545 1336.73 598.202C1322.37 591.072 1308.42 583.172 1294.29 575.607C1279.76 567.825 1264.96 560.344 1249.19 555.565C1213.93 544.879 1175.38 548.385 1140.59 560.469C1101.93 573.892 1066.97 597.817 1040.46 628.989L1040.48 629.014Z" fill="black"/>
</g>
<path d="M1115.46 584.728C1130.25 568.101 1140.36 547.824 1154.57 530.694C1161.69 522.134 1169.87 514.334 1179.53 508.795C1189.18 503.255 1200.38 500.092 1211.47 501.046C1223.8 502.117 1235.36 508.259 1244.39 516.736C1253.42 525.213 1260.12 535.983 1265.48 547.071C1270.6 557.766 1274.67 569.163 1282.05 578.452C1289.91 588.36 1300.96 595.122 1310.92 602.913C1315.91 606.804 1320.68 611.03 1324.62 615.967C1328.57 620.904 1331.65 626.645 1332.91 632.846C1334.14 639.192 1333.61 645.755 1331.36 651.817C1329.17 657.842 1325.45 663.298 1320.82 667.75C1311.56 676.662 1298.94 681.474 1286.22 683.273C1260.78 686.872 1235.05 679.29 1209.37 680.01C1183.37 680.721 1157.97 689.918 1131.98 688.964C1118.98 688.487 1105.8 685.315 1095.12 677.892C1089.74 674.204 1085.19 669.426 1081.77 663.867C1078.4 658.302 1076.35 651.901 1076.14 645.407C1075.93 639.214 1077.38 633.022 1079.85 627.331C1082.33 621.641 1085.82 616.436 1089.74 611.632C1097.61 602.026 1107.21 594.009 1115.45 584.737L1115.46 584.728Z" fill="url(#paint2_radial_1220_2721)"/>
<g filter="url(#filter3_f_1220_2721)">
<path d="M1405.36 124.367C1383.9 139.505 1393.28 158.404 1402.5 177.379C1411.73 196.355 1382.22 251.044 1381.9 253.397C1381.58 255.75 1439.99 225.676 1455.91 206.132C1474.71 183.058 1522.22 237.353 1519.64 229.08C1519.66 214.299 1426.82 109.229 1405.37 124.367H1405.36Z" fill="#7C7C7C"/>
</g>
<path d="M1362.84 458.326C1354.1 458.954 1345.57 461.941 1338.16 466.694C1330.74 471.448 1324.41 477.699 1319.44 484.937C1309.5 499.398 1305.13 517.13 1304.43 534.645C1303.91 547.8 1305.35 561.13 1309.72 573.557C1314.09 585.984 1321.44 597.491 1331.59 605.884C1341.97 614.478 1355.15 619.641 1368.62 620.277C1382.08 620.913 1395.73 617.039 1406.78 609.34C1415.59 603.206 1422.69 594.762 1427.76 585.298C1432.82 575.833 1435.87 565.356 1437.25 554.712C1439.71 535.908 1436.94 516.276 1428.24 499.423C1419.55 482.569 1404.81 468.686 1387.01 462.134C1379.31 459.289 1371.03 457.816 1362.84 458.401V458.326Z" fill="#020204"/>
<g filter="url(#filter4_f_1220_2721)">
<path d="M1383.71 515.691C1376.47 518.553 1364.99 516.753 1361.82 523.866C1359.94 528.084 1362.6 535.021 1366.87 536.754C1375.51 540.268 1388.89 533.908 1392.39 525.247C1393.9 521.481 1391.61 515.54 1387.87 513.95C1386.49 513.364 1385.11 515.122 1383.72 515.674L1383.71 515.691Z" fill="#141413"/>
</g>
<g filter="url(#filter5_f_1220_2721)">
<path d="M1416.93 534.519C1426.63 524.812 1410.02 499.037 1397.05 488.493C1387.66 480.853 1360.32 472.845 1361.49 481.171C1362.66 489.498 1374.88 500.134 1383.2 508.259C1393.35 518.259 1412.32 539.138 1416.93 534.519Z" fill="url(#paint3_linear_1220_2721)"/>
</g>
<mask id="mask0_1220_2721" style="mask-type:luminance" maskUnits="userSpaceOnUse" x="1248" y="375" width="240" height="284">
<path d="M1309.19 388.074C1287.87 405.873 1265.6 426.568 1256.88 452.928C1245.92 486.067 1243.22 527.548 1261.07 557.532C1293.87 612.612 1364.7 673.432 1426.34 655.859C1467.14 644.227 1477.45 584.729 1484.92 542.887C1489.86 515.213 1489.91 482.694 1474.46 459.204C1444.23 413.237 1387.2 376.409 1332.2 375.522C1323.46 375.379 1315.88 382.467 1309.19 388.074Z" fill="white"/>
</mask>
<g mask="url(#mask0_1220_2721)">
<path d="M1221.32 472.803C1241.34 456.193 1264.44 443.682 1289.29 435.983C1340.22 420.251 1398.07 426.468 1443.08 455.021C1458.62 464.879 1472.47 477.13 1486.93 488.527C1501.39 499.925 1516.72 510.62 1534.09 516.728C1543.46 520.026 1553.49 521.942 1563.38 520.913C1572.32 519.975 1580.95 516.628 1588.35 511.54C1595.75 506.452 1601.95 499.674 1606.59 491.984C1615.9 476.611 1618.9 457.966 1617.29 440.075C1614.08 404.284 1593.89 372.685 1576.97 340.995C1571.67 331.07 1566.63 320.969 1560.23 311.706C1540.63 283.287 1509.41 264.542 1476.68 253.563C1443.94 242.584 1409.35 238.617 1375.09 234.299C1359.81 232.374 1344.35 230.366 1329.06 232.207C1311.49 234.324 1294.95 241.412 1277.8 245.805C1269.66 247.897 1261.37 249.362 1253.3 251.697C1245.24 254.031 1237.29 257.303 1230.73 262.542C1221.15 270.207 1215.13 281.705 1212.52 293.697C1209.9 305.689 1210.51 318.166 1212.42 330.283C1216.25 354.518 1225.3 378.183 1224.45 402.702C1223.86 419.539 1218.57 436.075 1219.22 452.912C1219.41 457.933 1220.11 462.761 1221.31 467.556" fill="url(#paint4_linear_1220_2721)"/>
</g>
<g filter="url(#filter6_f_1220_2721)">
<path d="M1389.99 319.145C1386 324.165 1382.39 329.622 1379.53 335.63C1397.49 339.496 1414.68 346.894 1429.99 357.078C1459.66 376.777 1482.18 405.58 1497.98 437.623C1501.66 433.539 1505.03 429.154 1507.92 424.284C1492.04 390.911 1469.06 360.726 1438.37 340.35C1423.62 330.559 1407.19 323.161 1390 319.178L1389.99 319.145Z" fill="url(#paint5_linear_1220_2721)"/>
</g>
<g filter="url(#filter7_f_1220_2721)">
<path d="M1043.74 335.504C1041.72 335.463 1039.75 335.647 1037.72 335.739L1033.79 335.973C1045.61 337.044 1057.37 340.224 1068.04 345.011C1082.61 351.538 1095.44 360.852 1106.75 371.455C1127.7 391.078 1143.28 415.304 1153.82 440.995C1151.24 421.582 1145.41 402.742 1136.56 385.271C1132.43 380.501 1128.15 375.814 1123.49 371.463C1112.2 360.869 1099.34 351.563 1084.79 345.019C1072.07 339.304 1057.89 335.747 1043.74 335.496L1043.74 335.504Z" fill="url(#paint6_linear_1220_2721)"/>
</g>
<path d="M1009.52 511.507C1006.4 530.302 1006.29 550.017 1012.75 567.934C1016.93 579.767 1024.04 590.503 1032.6 599.733C1038.2 605.775 1044.55 611.265 1051.98 614.821C1059.41 618.378 1068.01 619.892 1075.99 617.892C1083.36 616.051 1089.82 611.282 1094.57 605.365C1099.33 599.449 1102.51 592.369 1104.76 585.114C1111.43 563.691 1110.37 540.243 1103.74 518.804C1098.92 503.18 1090.92 488.109 1078.41 477.573C1072.45 472.552 1065.46 468.619 1057.87 466.803C1050.28 464.987 1042.05 465.422 1034.96 468.644C1027.07 472.226 1020.96 479.046 1016.96 486.72C1012.96 494.393 1010.91 502.954 1009.5 511.49L1009.52 511.507Z" fill="#020204"/>
<g filter="url(#filter8_f_1220_2721)">
<path d="M1049.25 497.907C1051.28 503.213 1058.07 505.138 1061.8 509.414C1065.43 513.573 1069.23 517.866 1071.22 523.012C1075.02 532.853 1067.45 547.448 1075.4 554.393C1077.9 556.569 1082.89 556.619 1085.34 554.393C1094.92 545.673 1092.79 528.083 1089.01 515.69C1085.58 504.443 1077.07 493.798 1066.58 488.451C1061.73 485.982 1054.45 483.932 1050.3 487.447C1047.62 489.706 1048 494.644 1049.25 497.907Z" fill="url(#paint7_linear_1220_2721)"/>
</g>
<path d="M974.473 745.149C974.975 747.617 975.92 750.002 977.209 752.178C979.435 755.902 982.682 758.923 986.188 761.467C989.695 764.011 993.494 766.153 997.167 768.455C1016.7 780.731 1032.61 797.995 1046.75 816.212C1065.72 840.664 1082.5 867.803 1107.84 885.585C1125.73 898.138 1147.14 905.293 1168.88 907.477C1194.4 910.046 1220.26 905.92 1244.88 898.673C1267.69 891.954 1289.76 882.522 1310 870.054C1348.49 846.321 1380.63 811.534 1422.97 795.936C1432.23 792.53 1441.88 790.095 1450.8 785.894C1459.72 781.693 1468.13 775.4 1472.39 766.496C1476.58 757.944 1476.33 748.069 1477.67 738.672C1479.09 728.63 1482.3 718.906 1484.06 708.914C1485.82 698.922 1486.03 688.228 1481.72 679.039C1478.13 671.424 1471.63 665.416 1464.14 661.592C1456.65 657.767 1448.24 656.035 1439.84 655.617C1423.05 654.78 1406.47 659.089 1389.73 660.621C1367.56 662.646 1345.23 659.801 1322.98 660.453C1295.3 661.29 1268.02 667.525 1240.35 668.864C1208.78 670.395 1177.29 665.516 1145.72 664.261C1132.05 663.709 1118.27 663.843 1104.78 666.144C1091.29 668.445 1078.05 673.039 1066.79 680.813C1055.83 688.395 1047.08 698.722 1037 707.458C1031.96 711.826 1026.54 715.826 1020.55 718.73C1014.56 721.634 1007.94 723.45 1001.27 723.308C997.921 723.224 994.322 722.663 991.059 723.701C989.017 724.345 987.209 725.601 985.669 727.098C984.13 728.596 982.866 730.337 981.669 732.119C978.886 736.252 976.459 740.614 974.414 745.157L974.473 745.149Z" fill="url(#paint8_radial_1220_2721)"/>
<g filter="url(#filter9_f_1220_2721)">
<path d="M1098.36 779.166C1095.24 792.671 1097.22 806.856 1103.94 818.983C1110.65 831.11 1121.63 840.319 1134.73 844.832C1151.29 850.355 1169.94 847.643 1185.4 839.576C1194.36 834.89 1202.56 828.313 1207.75 819.626C1210.37 815.284 1212.09 810.457 1212.81 805.434C1213.48 800.413 1213.02 795.224 1211.26 790.496C1209.34 785.308 1205.91 780.722 1201.67 777.141C1197.44 773.559 1192.42 770.965 1187.17 769.224C1176.64 765.743 1165.33 765.676 1154.25 766.212C1137.46 767.018 1120.76 769.125 1104.3 772.513" fill="#D9B30D"/>
</g>
<g filter="url(#filter10_f_1220_2721)">
<path d="M1044.05 675.257L1011.43 696.705C1005.93 700.605 1000.26 704.822 997.367 710.898C995.308 715.207 994.84 720.103 994.856 724.873C994.873 729.643 995.108 734.446 994.472 739.099C994.053 742.329 993.183 745.509 993.032 748.764C992.949 750.396 993.074 752.028 993.501 753.618C993.909 755.204 994.699 756.666 995.802 757.877C997.25 759.409 999.216 760.354 1001.24 760.974C1003.27 761.593 1005.34 761.894 1007.4 762.396C1017.23 764.706 1025.79 770.739 1033.29 777.492L1055.38 798.212C1076.61 815.484 1104.76 822.648 1132.04 823.091C1159.32 823.535 1186.47 817.819 1213.17 811.794L1275.3 794.689C1306.29 783.267 1335.05 765.969 1359.97 744.295C1371.27 734.471 1381.87 723.676 1394.56 715.718C1405.77 708.672 1418.35 704.019 1429.76 697.282C1430.78 696.68 1431.79 696.061 1432.7 695.299C1433.61 694.538 1434.43 693.642 1434.96 692.58C1435.88 690.738 1435.88 688.563 1435.3 686.588C1434.71 684.613 1433.57 682.872 1432.28 681.282C1430.86 679.525 1429.25 677.918 1427.51 676.446C1415.6 666.236 1399.42 662.537 1383.78 661.299C1368.14 660.06 1352.32 660.939 1336.92 658.353C1322.36 655.843 1308.52 650.487 1294.47 645.993C1279.73 641.226 1264.66 637.562 1249.38 635.031C1213.44 629.173 1176.43 630.294 1140.78 637.709C1106.82 644.78 1074.09 657.542 1044.21 675.199L1044.05 675.257Z" fill="#604405"/>
</g>
<path d="M1040.48 637.382C1024.33 648.261 1009.8 661.508 997.502 676.588C990.472 685.207 984.079 694.58 980.539 705.14C977.753 713.442 976.807 722.228 975.05 730.806C974.38 734.019 973.627 737.249 973.627 740.513C973.635 742.153 973.845 743.802 974.347 745.367C974.849 746.931 975.669 748.396 976.807 749.576C978.69 751.534 981.326 752.588 983.987 753.141C986.648 753.693 989.376 753.768 992.071 754.078C1004.25 755.459 1015.45 761.375 1025.54 768.321L1055.28 789.894C1078.16 804.371 1105.45 810.798 1132.5 811.844C1159.55 812.89 1186.53 808.781 1213.09 803.476C1234.17 799.267 1255.21 794.271 1275.22 786.371C1305.86 774.287 1333.5 755.685 1359.89 735.977C1371.88 727.023 1383.71 717.793 1394.48 707.4C1398.13 703.868 1401.67 700.203 1405.59 696.973C1409.51 693.743 1413.86 690.931 1418.69 689.374C1426.06 687.006 1434.06 687.684 1441.69 688.956C1447.44 689.918 1453.2 691.216 1459.03 690.964C1461.94 690.847 1464.86 690.345 1467.56 689.257C1470.27 688.169 1472.77 686.496 1474.62 684.236C1477.03 681.216 1478.34 677.459 1478.32 673.592C1478.33 669.759 1477.15 665.977 1475.22 662.671C1471.33 656.06 1464.61 651.6 1457.61 648.487C1448.02 644.219 1437.64 642.127 1427.43 639.65C1396.09 632.085 1365.63 620.905 1336.75 606.562C1322.39 599.432 1308.43 591.532 1294.31 583.968C1279.78 576.185 1264.98 568.704 1249.2 563.926C1213.95 553.239 1175.39 556.746 1140.61 568.829C1101.95 582.252 1066.99 606.177 1040.47 637.349L1040.48 637.382Z" fill="url(#paint9_linear_1220_2721)"/>
<g filter="url(#filter11_f_1220_2721)">
<path d="M1288.18 645.131C1286.29 642.737 1283.58 641.047 1280.65 640.193C1277.72 639.34 1274.58 639.357 1271.58 639.775C1265.55 640.804 1260.17 643.959 1255.13 647.516C1240.82 657.357 1228.18 669.508 1217.16 682.914C1202.56 700.654 1190.51 721.173 1186.47 743.793C1185.8 747.6 1185.34 751.492 1185.81 755.341C1186.29 759.19 1187.76 762.998 1190.5 765.743C1192.89 768.153 1196.16 769.626 1199.52 770.111C1202.88 770.596 1206.35 770.128 1209.56 769.04C1216.01 766.864 1221.36 762.345 1226.42 757.826C1254.33 732.847 1279.58 702.864 1289.68 666.78C1290.68 663.156 1291.56 659.449 1291.52 655.691C1291.49 651.934 1290.51 648.076 1288.18 645.131Z" fill="#F6DA4A"/>
</g>
<g opacity="0.8" filter="url(#filter12_f_1220_2721)">
<path d="M1221.32 593.415C1223.24 599.624 1233.27 598.603 1239.06 601.574C1244.14 604.185 1248.22 609.917 1253.93 610.085C1259.37 610.252 1267.86 608.202 1268.58 602.804C1269.51 595.666 1259.09 591.13 1252.38 588.511C1243.76 585.147 1232.69 583.44 1224.6 587.942C1222.74 588.972 1220.72 591.39 1221.35 593.423L1221.32 593.415Z" fill="url(#paint10_radial_1220_2721)"/>
</g>
<g opacity="0.8" filter="url(#filter13_f_1220_2721)">
<path d="M1125.73 589.817C1118.3 587.39 1106 600.503 1110.01 607.223C1111.12 609.064 1114.49 611.407 1116.76 610.152C1120.19 608.269 1122.98 601.533 1126.69 598.897C1129.17 597.139 1128.62 590.763 1125.72 589.825L1125.73 589.817Z" fill="url(#paint11_radial_1220_2721)"/>
</g>
<g filter="url(#filter14_f_1220_2721)">
<path d="M1453.41 717.371C1466.62 717.371 1478.81 704.13 1480.64 687.796C1482.47 671.462 1473.25 658.221 1460.04 658.221C1446.83 658.221 1434.64 671.462 1432.81 687.796C1430.98 704.13 1440.2 717.371 1453.41 717.371Z" fill="url(#paint12_linear_1220_2721)"/>
</g>
<mask id="mask1_1220_2721" style="mask-type:luminance" maskUnits="userSpaceOnUse" x="976" y="371" width="175" height="303">
<path d="M1045.43 388.074C1013.7 428.158 974.154 485.899 976.873 532.427C979.593 578.955 1009.17 649.039 1046.96 666.319C1084.74 683.6 1095.11 666.428 1116.67 645.399C1138.22 624.369 1148.97 583.909 1150.19 542.887C1151.41 501.866 1124.79 443.137 1104.67 415.271C1084.54 387.405 1077.16 347.99 1045.42 388.074H1045.43Z" fill="white"/>
</mask>
<g mask="url(#mask1_1220_2721)">
<path d="M1013.3 448.033C1035.77 434.643 1063.13 431.547 1089.18 434.007C1115.22 436.468 1140.43 444.116 1165.66 450.995C1184.17 456.033 1202.92 460.702 1220.26 468.886C1237.61 477.071 1253.74 489.104 1263.29 505.732L1267.81 513.782C1269.44 516.393 1271.35 518.887 1273.81 520.728C1276.26 522.569 1279.3 523.774 1282.37 523.607C1283.91 523.523 1285.44 523.105 1286.76 522.318C1288.08 521.531 1289.21 520.393 1289.92 519.037C1290.74 517.473 1290.99 515.657 1290.9 513.883C1290.76 512.117 1290.44 510.372 1289.92 508.678C1283.6 485.64 1268.71 466.1 1257.37 445.079L1238.14 406.618C1214.56 363.438 1175.85 329.496 1131.86 307.479C1087.88 285.462 1038.75 274.876 989.627 271.997C932.722 268.667 875.651 275.428 819.5 285.303C795.148 289.588 770.461 294.634 748.905 306.743C738.135 312.793 728.26 320.609 720.553 330.257C712.846 339.906 707.365 351.471 705.591 363.705C703.883 375.505 705.674 387.639 709.775 398.819C713.875 409.999 720.302 420.225 727.825 429.463C742.863 447.941 762.135 462.384 779.893 478.25C797.65 494.117 814.202 511.657 833.977 524.803C843.902 531.372 854.671 536.812 866.136 540.008C877.601 543.205 889.818 544.109 901.484 541.716C913.576 539.239 924.773 533.305 934.572 525.799C944.371 518.293 952.865 509.23 960.915 499.874C977.024 481.163 992.07 460.66 1013.28 448.024L1013.3 448.033Z" fill="url(#paint13_radial_1220_2721)"/>
</g>
<path d="M1805.86 1250.74C1856.78 1291.71 1889.09 1353.56 1899.08 1418.13C1906.88 1468.51 1901.81 1520.19 1890.46 1569.87C1879.12 1619.55 1861.58 1667.58 1844.17 1715.48C1837.22 1734.58 1830.26 1753.86 1827.5 1774C1824.74 1794.13 1826.5 1815.45 1836.2 1833.31C1847.33 1853.78 1868.11 1867.87 1890.45 1874.51C1912.5 1881.06 1936.3 1880.92 1958.63 1875.36C1980.96 1869.8 2001.79 1858.93 2019.95 1844.82C2066.11 1808.98 2093.96 1753.18 2104.74 1695.76C2115.52 1638.34 2110.57 1579.02 2100.56 1521.45C2086.89 1442.95 2063.89 1366.22 2034.61 1292.09C2013.08 1237.57 1987.89 1183.97 1952.69 1137.11C1918.24 1091.25 1874.81 1052.65 1841.06 1006.27C1817.6 974.055 1798.81 938.071 1770.71 909.82C1756.65 895.694 1740.25 883.61 1721.67 876.389C1703.1 869.167 1682.23 867.05 1663.05 872.456C1637.78 879.569 1617.03 899.485 1606.13 923.351C1595.22 947.218 1593.21 974.59 1597.49 1000.51C1603.01 1033.94 1618.29 1064.97 1635.53 1094.15C1655 1127.09 1677.56 1158.81 1706.96 1183.3C1737.65 1208.87 1774.76 1225.73 1805.88 1250.75L1805.86 1250.74Z" fill="#020204"/>
<mask id="mask2_1220_2721" style="mask-type:luminance" maskUnits="userSpaceOnUse" x="1595" y="869" width="516" height="1011">
<path d="M1805.85 1250.74C1857.11 1291.94 1889.15 1353.82 1899.08 1418.13C1914.63 1518.8 1879.1 1619.6 1844.17 1715.48C1837.21 1734.61 1830.19 1753.98 1827.43 1774.02C1824.66 1794.06 1826.4 1815.43 1836.2 1833.32C1847.3 1853.61 1868 1867.84 1890.44 1874.52C1912.51 1881.08 1936.4 1880.88 1958.73 1875.29C1981.06 1869.7 2001.84 1858.82 2019.96 1844.82C2066.65 1808.84 2094.57 1752.89 2105.15 1695.5C2115.73 1638.11 2110.61 1578.93 2100.47 1521.46C2086.64 1443.05 2063.75 1366.31 2034.53 1292.1C2013.07 1237.65 1987.94 1184.07 1952.59 1137.12C1918.12 1091.34 1874.53 1052.6 1840.95 1006.28C1817.68 974.113 1799.21 938.247 1771.16 909.979C1757.14 895.837 1740.69 883.744 1722.01 876.506C1703.32 869.267 1682.27 867.1 1662.94 872.472C1650.12 876.037 1638.3 882.824 1628.54 891.719C1618.77 900.615 1611.05 911.602 1605.59 923.544C1594.69 947.419 1593.01 974.691 1597.37 1000.52C1603 1033.85 1618.19 1064.89 1635.42 1094.16C1654.79 1127.06 1677.32 1158.76 1706.85 1183.31C1737.52 1208.81 1774.68 1225.77 1805.76 1250.76" fill="white"/>
</mask>
<g mask="url(#mask2_1220_2721)">
<g filter="url(#filter15_f_1220_2721)">
<path d="M1686.01 1171.81L1698.79 1183.32C1730.03 1208.89 1746.67 1237.59 1778.34 1262.63C1830.19 1303.59 1882.79 1374.29 1892.97 1438.86C1900.91 1489.24 1890.41 1516.6 1877.59 1576C1864.77 1635.4 1828.43 1719.5 1808.8 1776.77C1800.96 1799.62 1824.65 1790.19 1821.55 1814.26C1819.99 1826.09 1819.89 1838.06 1821.25 1849.9L1821.85 1843.03C1825.62 1810.2 1835.67 1778.63 1846.64 1747.67C1867.71 1688.07 1891.91 1629.68 1908.59 1568.52C1925.27 1507.37 1923.41 1463.38 1914.72 1410.83C1903.78 1344.75 1865.34 1283.74 1810.9 1243.46C1772.39 1214.99 1727.01 1196.73 1686.04 1171.81H1686.01Z" fill="#838384"/>
</g>
</g>
<g opacity="0.25" filter="url(#filter16_f_1220_2721)">
<path d="M892.164 1134.78C900.665 1147.54 886.881 1191.5 1085.01 1163.36C1085.01 1163.36 1050.21 1167.19 1015.91 1175.11C962.592 1192.96 916.13 1212.91 880.293 1239.34C844.784 1265.46 818.791 1299.56 786.209 1328.85C786.209 1328.85 838.969 1232.45 852.116 1203.44C865.263 1174.42 849.914 1175.82 860.327 1133.03C870.74 1090.23 896.193 1049.29 896.193 1049.29C896.193 1049.29 875.405 1109.62 892.164 1134.78V1134.78Z" fill="url(#paint14_radial_1220_2721)"/>
</g>
<g opacity="0.42" filter="url(#filter17_f_1220_2721)">
<path d="M1529.27 1123.28C1488.89 1151.4 1465.24 1148.07 1416.24 1153.57C1367.24 1159.07 1234.67 1157.09 1234.67 1157.09C1234.67 1157.09 1253.86 1156.73 1296.41 1164.65C1338.95 1172.58 1425.72 1180.15 1474.58 1198.75C1523.45 1217.35 1541.26 1222.66 1570.96 1241.43C1613.22 1268.16 1644.25 1310.02 1684.66 1339.31C1684.66 1339.31 1686.62 1300.45 1670.3 1271.43C1653.98 1242.41 1610.05 1196.66 1597.23 1153.94C1584.41 1111.22 1578.2 1027.31 1578.2 1027.31C1578.2 1027.31 1569.67 1095.14 1529.28 1123.26L1529.27 1123.28Z" fill="url(#paint15_radial_1220_2721)"/>
</g>
<g opacity="0.2" filter="url(#filter18_f_1220_2721)">
<path d="M1149.52 1063.21L1143.69 1099.56C1142.52 1105.5 1141.22 1111.45 1139 1117.08C1136.78 1122.71 1133.61 1128.06 1129.13 1132.11C1125.19 1135.65 1120.39 1138.1 1115.57 1140.31C1096.76 1148.93 1076.62 1154.64 1056.09 1157.21L1080.65 1159.45C1085.8 1160.01 1090.96 1160.64 1095.98 1161.93C1101 1163.22 1105.9 1165.28 1110.07 1168.25C1114.66 1171.6 1118.26 1176.18 1120.95 1181.19C1126.31 1191.16 1128.1 1202.63 1129.09 1213.82C1130.35 1228.24 1130.45 1242.78 1129.37 1257.2C1130.34 1247.55 1132.36 1237.99 1135.39 1228.77C1140.86 1212.15 1149.65 1196.57 1161.5 1183.7C1166.21 1178.59 1171.38 1173.91 1177.07 1169.91C1194.7 1157.61 1216.3 1152.35 1237.62 1155.17C1216 1156.05 1194.74 1149.45 1177.42 1136.48C1168.7 1129.91 1161.1 1121.73 1155.83 1112.17C1147.64 1097.2 1145.4 1079.68 1149.54 1063.13L1149.52 1063.21Z" fill="url(#paint16_radial_1220_2721)"/>
</g>
<g opacity="0.1" filter="url(#filter19_f_1220_2721)">
<path d="M1097.89 1348.07C1087.59 1387.25 1080.52 1427.21 1076.75 1467.54C1071.42 1524.55 1072.7 1581.95 1069.64 1639.13C1067.13 1687.65 1061.35 1736.67 1069.77 1784.52C1073.79 1807.34 1081.01 1829.59 1091.15 1850.42C1092.76 1842.47 1093.94 1834.44 1094.68 1826.36C1098.26 1787.56 1091.72 1748.64 1089.51 1709.74C1085.64 1641.57 1095.08 1573.34 1098.93 1505.24C1101.88 1452.88 1101.53 1400.39 1097.88 1348.07L1097.89 1348.07Z" fill="black"/>
</g>
<g filter="url(#filter20_f_1220_2721)">
<path d="M1568.08 760.463C1549.99 776.948 1576.57 801.702 1589.17 830.79C1597 848.865 1618.69 874.347 1639.65 870.271C1655.42 867.2 1665.21 844.497 1663.72 828.514C1660.84 797.635 1634.79 790.413 1615.87 779.81C1600.9 771.408 1580.79 748.898 1568.09 760.479L1568.08 760.463Z" fill="#838384"/>
</g>
<g opacity="0.2" filter="url(#filter21_f_1220_2721)">
<path d="M2148.57 2110.02C2144.59 2123.09 2138.66 2135.53 2130.96 2146.93C2113.94 2172.13 2089.25 2191.11 2064.56 2208.6C2022.45 2238.44 1978.6 2265.82 1939.42 2299.82C1913.15 2322.54 1889.23 2348.02 1867.03 2374.84C1848.06 2397.77 1830.22 2421.87 1808.6 2442.26C1786.77 2462.85 1761.08 2479.47 1733.39 2488.54C1699.72 2499.56 1664.15 2499.02 1631.72 2490.71C1608.99 2484.89 1586.83 2474.76 1572.75 2456.43C1558.61 2438.04 1554.03 2413.32 1552.4 2389.05C1549.51 2346.12 1554.64 2302.27 1559.3 2258.71C1563.19 2222.51 1566.76 2186.28 1568.24 2150.16C1570.82 2084.45 1566.55 2019.31 1557.65 1955.4C1556.16 1944.69 1554.54 1933.91 1555.44 1922.88C1556.35 1911.85 1560.04 1900.39 1567.78 1891.88C1574.93 1884.01 1584.91 1879.36 1594.85 1877.07C1604.79 1874.77 1614.87 1874.56 1624.87 1874.39C1648.41 1873.76 1672.1 1872.38 1695.29 1874.44C1709.92 1875.75 1724.27 1878.41 1738.88 1879.82C1763.27 1882.16 1788.55 1880.93 1813.02 1873.76C1839.35 1866.05 1864.46 1851.57 1891.22 1847.59C1902.19 1845.96 1913.21 1846.15 1923.87 1847.64C1934.76 1849.17 1945.59 1852.18 1953.96 1858.82C1960.32 1863.88 1964.98 1870.82 1968.62 1878.21C1974.04 1889.24 1977.39 1901.39 1979.28 1913.86C1980.97 1924.91 1981.56 1936.29 1984.42 1946.98C1989.1 1964.55 1999.71 1979.5 2012.49 1991.66C2025.27 2003.83 2040.21 2013.44 2055.11 2022.91C2069.98 2032.34 2084.92 2041.71 2100.79 2049.49C2108.24 2053.14 2115.89 2056.43 2123.01 2060.64C2130.12 2064.85 2136.76 2070.01 2141.49 2076.84C2147.9 2086.08 2150.47 2098.2 2148.55 2110.1" fill="url(#paint17_linear_1220_2721)"/>
</g>
<mask id="mask3_1220_2721" style="mask-type:luminance" maskUnits="userSpaceOnUse" x="1592" y="1757" width="726" height="745">
<path d="M2315.52 2141.35C2323.14 2154.71 2302.38 2169.7 2291.96 2181C2269.01 2205.87 2237.98 2222.02 2209.14 2239.74C2159.65 2270.16 2103.54 2289.14 2055 2321.06C2022.51 2342.42 1993.68 2368.94 1964.12 2394.21C1938.83 2415.83 1918.25 2443.38 1890.21 2461.31C1862.18 2479.23 1831.27 2496.07 1798.24 2500.22C1758.22 2505.24 1715.63 2498.08 1678.58 2482.11C1652.68 2470.95 1627.03 2453.83 1611.94 2429.98C1596.77 2406 1594.7 2375.26 1593.25 2346.93C1590.69 2296.22 1604.66 2246.01 1611.48 2195.69C1617.17 2153.83 1626.99 2112.48 1630.39 2070.38C1636.59 1993.87 1623.87 1916.33 1633.07 1840.14C1636.04 1815.56 1631.56 1784.41 1649.91 1767.8C1666.96 1752.36 1695.35 1758.43 1718.36 1758.91C1746.35 1759.49 1773.86 1766.86 1801.12 1773.28C1818.33 1777.32 1834.58 1785.08 1851.93 1788.42C1880.72 1793.97 1910.23 1797.34 1939.53 1796.39C1971.2 1795.35 2001.76 1781.36 2033.45 1781.62C2046.44 1781.73 2059.59 1783.98 2071.83 1788.31C2084.24 1792.71 2096.83 1798.41 2106.33 1807.52C2113.57 1814.46 2118.3 1823.9 2122.06 1833.21C2127.69 1847.12 2129.54 1862.31 2131.83 1877.14C2133.85 1890.31 2130.55 1904.51 2135.29 1916.98C2150.61 1957.14 2181.96 1990.01 2212.49 2020.27C2227.08 2036.46 2246.21 2049.84 2264.1 2060.67C2283.09 2072.17 2300.65 2081.17 2309.81 2100.97C2315.34 2113.4 2305.26 2132.43 2315.53 2141.35L2315.52 2141.35Z" fill="white"/>
</mask>
<g mask="url(#mask3_1220_2721)">
<path d="M2315.52 2141.35C2309.91 2155.74 2301.91 2169.19 2291.96 2181C2270 2207.06 2239.5 2224.26 2209.14 2239.74C2157.34 2266.13 2103.69 2289.3 2055 2321.06C2022.38 2342.33 1992.27 2367.31 1964.12 2394.21C1940.04 2417.22 1917.21 2441.8 1890.21 2461.31C1862.96 2480.97 1831.47 2495.23 1798.24 2500.22C1757.82 2506.29 1716.07 2498.44 1678.58 2482.11C1652.32 2470.67 1627.06 2454.3 1611.94 2429.98C1596.76 2405.56 1593.3 2375.68 1593.25 2346.93C1593.19 2296.08 1602.61 2245.67 1611.48 2195.69C1618.84 2154.08 1625.87 2112.38 1630.39 2070.37C1638.62 1993.97 1638.56 1916.79 1633.07 1840.14C1632.23 1827.3 1631.08 1814.34 1633 1801.61C1634.93 1788.88 1640.16 1776.2 1649.91 1767.8C1658.92 1760.05 1671 1756.62 1682.88 1755.97C1694.76 1755.32 1706.59 1757.2 1718.36 1758.92C1746.08 1762.97 1774.03 1766.15 1801.12 1773.28C1818.22 1777.78 1834.87 1783.83 1851.93 1788.43C1880.41 1796.13 1910.23 1799.81 1939.53 1796.4C1971.07 1792.72 2001.7 1780.86 2033.45 1781.63C2046.48 1781.95 2059.39 1784.41 2071.83 1788.32C2084.51 1792.32 2097.02 1798.05 2106.33 1807.53C2113.41 1814.72 2118.35 1823.8 2122.06 1833.22C2127.59 1847.23 2130.56 1862.15 2131.83 1877.15C2132.96 1890.44 2132.77 1903.88 2135.29 1916.98C2139.44 1938.53 2150.75 1958.18 2164.82 1975.02C2178.88 1991.86 2195.78 2006.15 2212.48 2020.27C2229.22 2034.33 2246.04 2048.35 2264.09 2060.68C2272.56 2066.47 2281.29 2071.89 2289.34 2078.25C2297.38 2084.61 2304.78 2092.03 2309.8 2100.97C2316.62 2113.1 2318.7 2127.82 2315.51 2141.35L2315.52 2141.35Z" fill="url(#paint18_linear_1220_2721)"/>
</g>
<mask id="mask4_1220_2721" style="mask-type:luminance" maskUnits="userSpaceOnUse" x="1592" y="1757" width="726" height="745">
<path d="M2315.52 2141.35C2323.14 2154.71 2302.38 2169.7 2291.96 2181C2269.01 2205.87 2237.98 2222.02 2209.14 2239.74C2159.65 2270.16 2103.54 2289.14 2055 2321.06C2022.51 2342.42 1993.68 2368.94 1964.12 2394.21C1938.83 2415.83 1918.25 2443.38 1890.21 2461.31C1862.18 2479.23 1831.27 2496.07 1798.24 2500.22C1758.22 2505.24 1715.63 2498.08 1678.58 2482.11C1652.68 2470.95 1627.03 2453.83 1611.94 2429.98C1596.77 2406 1594.7 2375.26 1593.25 2346.93C1590.69 2296.22 1604.66 2246.01 1611.48 2195.69C1617.17 2153.83 1626.99 2112.48 1630.39 2070.38C1636.59 1993.87 1623.87 1916.33 1633.07 1840.14C1636.04 1815.56 1631.56 1784.41 1649.91 1767.8C1666.96 1752.36 1695.35 1758.43 1718.36 1758.91C1746.35 1759.49 1773.86 1766.86 1801.12 1773.28C1818.33 1777.32 1834.58 1785.08 1851.93 1788.42C1880.72 1793.97 1910.23 1797.34 1939.53 1796.39C1971.2 1795.35 2001.76 1781.36 2033.45 1781.62C2046.44 1781.73 2059.59 1783.98 2071.83 1788.31C2084.24 1792.71 2096.83 1798.41 2106.33 1807.52C2113.57 1814.46 2118.3 1823.9 2122.06 1833.21C2127.69 1847.12 2129.54 1862.31 2131.83 1877.14C2133.85 1890.31 2130.55 1904.51 2135.29 1916.98C2150.61 1957.14 2181.96 1990.01 2212.49 2020.27C2227.08 2036.46 2246.21 2049.84 2264.1 2060.67C2283.09 2072.17 2300.65 2081.17 2309.81 2100.97C2315.34 2113.4 2305.26 2132.43 2315.53 2141.35L2315.52 2141.35Z" fill="white"/>
</mask>
<g mask="url(#mask4_1220_2721)">
<g filter="url(#filter22_f_1220_2721)">
<path d="M2289.44 2114.97C2284.26 2127.95 2277 2139.99 2267.93 2150.62C2247.83 2174.17 2219.98 2189.56 2192.3 2203.42C2144.99 2227.1 2096.04 2247.92 2051.54 2276.52C2021.8 2295.63 1994.3 2318.08 1968.55 2342.29C1946.54 2362.99 1925.66 2385.11 1901.05 2402.61C1876.11 2420.35 1847.34 2433.13 1817.05 2437.59C1780.15 2443.03 1742.07 2435.98 1707.78 2421.31C1683.87 2411.08 1660.78 2396.45 1646.93 2374.44C1633.15 2352.54 1629.94 2325.66 1629.86 2299.78C1629.75 2254.05 1638.38 2208.82 1646.51 2163.81C1653.26 2126.41 1659.69 2088.94 1663.78 2051.15C1671.23 1982.47 1670.88 1913.09 1666.22 1844.16C1665.45 1832.61 1664.55 1820.95 1666.33 1809.52C1668.1 1798.09 1672.84 1786.7 1681.61 1779.14C1689.83 1772.05 1700.88 1768.95 1711.73 1768.38C1722.59 1767.81 1733.38 1769.57 1744.12 1771.14C1769.41 1774.87 1794.93 1777.67 1819.68 1784.05C1835.29 1788.09 1850.51 1793.53 1866.08 1797.68C1892.11 1804.62 1919.32 1807.93 1946.09 1804.84C1974.87 1801.52 2002.88 1790.87 2031.86 1791.56C2043.74 1791.85 2055.54 1794.07 2066.92 1797.59C2078.49 1801.15 2089.94 1806.24 2098.43 1814.85C2104.84 1821.33 2109.27 1829.53 2112.79 1837.95C2118.03 1850.47 2121.43 1863.86 2121.71 1877.44C2122 1891.62 2118.9 1905.85 2120.82 1919.9C2122.38 1931.3 2127.21 1942.06 2133.38 1951.78C2139.54 1961.5 2147.05 1970.27 2154.49 1979.06C2168.86 1996.05 2183.28 2013.34 2201.29 2026.38C2221.81 2041.23 2246.16 2049.9 2267.36 2063.76C2273.68 2067.9 2279.8 2072.57 2284.25 2078.66C2287.96 2083.85 2290.38 2089.86 2291.29 2096.18C2292.2 2102.5 2291.57 2108.94 2289.47 2114.97H2289.44Z" fill="#CD8907"/>
</g>
</g>
<mask id="mask5_1220_2721" style="mask-type:luminance" maskUnits="userSpaceOnUse" x="1593" y="1757" width="725" height="745">
<path d="M2315.52 2141.35C2323.12 2154.71 2302.38 2169.7 2291.95 2181C2269 2205.88 2237.97 2222.02 2209.12 2239.74C2159.64 2270.17 2103.53 2289.24 2054.98 2321.06C2022.49 2342.42 1993.67 2368.95 1964.09 2394.21C1938.81 2415.84 1918.22 2443.4 1890.18 2461.3C1862.13 2479.21 1831.23 2496.06 1798.2 2500.22C1758.18 2505.25 1715.59 2498.08 1678.64 2482.11C1652.74 2470.95 1627 2453.82 1612.01 2429.99C1596.84 2406.01 1594.76 2375.28 1593.33 2346.94C1590.75 2296.23 1604.73 2246.01 1611.56 2195.7C1617.24 2153.83 1627.05 2112.48 1630.47 2070.39C1636.66 1993.89 1623.94 1916.34 1633.15 1840.14C1636.02 1815.57 1631.63 1784.42 1649.98 1767.81C1667.03 1752.38 1695.41 1758.53 1718.42 1758.92C1746.42 1759.52 1773.93 1766.89 1801.18 1773.29C1818.4 1777.33 1834.64 1785.1 1852 1788.45C1880.69 1794 1910.28 1797.37 1939.59 1796.41C1971.27 1795.38 2001.82 1781.37 2033.51 1781.64C2046.5 1781.75 2059.66 1784.01 2071.9 1788.35C2084.3 1792.74 2096.9 1798.45 2106.4 1807.55C2113.64 1814.5 2118.35 1823.92 2122.12 1833.33C2127.75 1847.25 2129.6 1862.43 2131.88 1877.26C2133.91 1890.43 2130.6 1904.64 2135.35 1917.08C2150.65 1957.25 2182.03 1990.12 2212.54 2020.37C2227.12 2036.56 2246.26 2049.95 2264.15 2060.78C2283.13 2072.27 2300.69 2081.28 2309.87 2101.08C2315.39 2113.5 2305.32 2132.55 2315.59 2141.47L2315.52 2141.35Z" fill="white"/>
</mask>
<g mask="url(#mask5_1220_2721)">
<g filter="url(#filter23_f_1220_2721)">
<path d="M2286.5 2100.35C2280.74 2113.4 2273.28 2125.56 2264.41 2136.34C2243.81 2161.38 2216.01 2178.62 2186.71 2189.68C2138.49 2207.9 2085.84 2210.35 2038.51 2231.09C2009.66 2243.74 1983.7 2262.78 1957.4 2280.8C1936.15 2295.34 1914.43 2309.36 1891.1 2319.53C1864.75 2331.03 1836.71 2337.48 1808.59 2342.01C1790.71 2344.9 1772.6 2347 1754.53 2346C1736.46 2345 1718.34 2340.77 1702.4 2331.57C1690.31 2324.57 1679.45 2314.52 1672.98 2301.47C1665.81 2286.98 1664.57 2269.96 1664.74 2253.52C1665.18 2209.74 1674.55 2166.43 1674.26 2122.64C1674.02 2084.53 1666.47 2046.9 1664.3 2008.85C1660.12 1935.69 1675.82 1861.25 1662 1789.48C1659.8 1777.99 1656.82 1766.52 1656.96 1754.78C1657.04 1748.9 1657.92 1743.02 1659.97 1737.59C1662.03 1732.15 1665.36 1727.23 1669.78 1723.79C1673.51 1720.9 1677.91 1719.15 1682.43 1718.36C1686.96 1717.56 1691.59 1717.72 1696.13 1718.43C1705.2 1719.84 1713.84 1723.4 1722.67 1726.03C1747.94 1733.56 1774.64 1733.39 1800.31 1739.07C1816.42 1742.64 1832.03 1748.46 1847.98 1752.83C1874.76 1760.05 1902.69 1763.28 1930.16 1760.05C1959.71 1756.59 1988.57 1745.87 2018.28 1746.64C2030.45 1746.95 2042.54 1749.22 2054.29 1752.73C2066.04 1756.23 2077.77 1761.18 2086.66 1770.16C2093.06 1776.63 2097.66 1784.9 2101.41 1793.46C2106.86 1805.96 2110.65 1819.55 2110.57 1833.35C2110.52 1840.54 2109.42 1847.66 2108.78 1854.8C2108.14 1861.93 2107.94 1869.28 2109.64 1876.22C2111.34 1883.16 2114.94 1889.49 2119.04 1895.19C2123.15 1900.89 2127.79 1906.12 2132.03 1911.71C2143.91 1927.36 2152.4 1945.59 2161.65 1963.17C2170.9 1980.75 2181.28 1998.16 2195.9 2010.81C2215.79 2028.06 2241.6 2034.94 2263.77 2048.56C2270.27 2052.55 2276.55 2057.22 2281.12 2063.61C2284.78 2068.76 2287.18 2074.81 2288.12 2081.21C2289.06 2087.62 2288.5 2094.17 2286.48 2100.28L2286.5 2100.35Z" fill="#F5C021"/>
</g>
</g>
<g filter="url(#filter24_f_1220_2721)">
<path d="M1656.97 1796.36C1684.39 1788.93 1707.73 1809.72 1727.62 1825.41C1740.46 1836.37 1759.02 1833.61 1774.79 1834.13C1800.9 1833.18 1826.88 1838.51 1853.01 1835.27C1904.43 1830.92 1954.83 1818.28 2006.5 1816.02C2031.18 1814.46 2058.88 1813.03 2080.21 1827.44C2088.85 1833.44 2101.52 1858.74 2110.05 1849.24C2106.53 1822.65 2086.81 1796.89 2060.34 1789.81C2039.63 1786.55 2018.5 1792.24 1997.66 1790.4C1935.54 1788.92 1873.87 1777.38 1811.6 1780.69C1768.29 1781.07 1725.01 1779.06 1681.77 1777.37C1664.78 1773.9 1658.78 1789 1649.55 1794.77" fill="url(#paint19_linear_1220_2721)"/>
</g>
<g opacity="0.75" filter="url(#filter25_f_1220_2721)">
<path d="M1779.88 1290.68C1789.82 1289.15 1851.15 1341.29 1842.77 1360.75C1834.38 1380.21 1818.63 1368.44 1807.36 1368.57C1796.09 1368.7 1765.26 1382.7 1760.1 1373.87C1754.93 1365.04 1773.73 1344.41 1783.57 1327.18C1791.49 1313.3 1769.94 1292.32 1779.88 1290.78L1779.88 1290.68Z" fill="#7C7C7C"/>
</g>
<g opacity="0.25" filter="url(#filter26_f_1220_2721)">
<path d="M914.404 962.484C913.411 950.469 896.256 948.672 888.604 954.66C882.143 959.727 876.084 977.011 881.657 983.775C890.718 994.736 915.756 978.966 914.402 962.5L914.404 962.484Z" fill="#7C7C7C"/>
</g>
<g opacity="0.35" filter="url(#filter27_f_1220_2721)">
<path d="M2026.63 1838.11C2021.92 1828.89 2013.35 1822 2003.79 1818C1994.22 1814.01 1983.73 1812.73 1973.38 1812.82C1952.67 1812.98 1932.08 1818.37 1911.45 1816.58C1894.02 1815.07 1877.48 1808.52 1860.41 1804.39C1842.86 1800.2 1824.24 1798.53 1806.81 1803.19C1788.18 1808.26 1771.74 1820.71 1761.45 1837.04C1752.38 1851.43 1748.06 1868.45 1746.72 1885.41C1745.38 1902.37 1746.83 1919.44 1748.55 1936.37C1749.78 1948.62 1751.17 1960.89 1754.14 1972.86C1757.1 1984.83 1761.7 1996.48 1768.91 2006.46C1779.29 2020.82 1794.71 2031.06 1811.34 2037.21C1838.81 2047.25 1869.03 2046.72 1896.13 2035.73C1943.49 2015.17 1983.58 1978.29 2008.01 1932.8C2016.76 1916.51 2023.55 1899.16 2027.95 1881.21C2029.69 1874.07 2031.06 1866.8 2031.13 1859.45C2031.19 1852.1 2029.9 1844.64 2026.56 1838.11H2026.63Z" fill="url(#paint20_radial_1220_2721)"/>
</g>
<g opacity="0.35" filter="url(#filter28_f_1220_2721)">
<path d="M2026.63 1828.44C2021.92 1821.77 2013.35 1816.79 2003.79 1813.9C1994.22 1811.02 1983.73 1810.09 1973.38 1810.15C1952.67 1810.27 1932.08 1814.17 1911.45 1812.87C1894.02 1811.78 1877.48 1807.05 1860.41 1804.06C1842.86 1801.03 1824.24 1799.82 1806.81 1803.19C1788.18 1806.86 1771.74 1815.86 1761.45 1827.66C1752.38 1838.07 1748.06 1850.37 1746.72 1862.63C1745.38 1874.89 1746.83 1887.23 1748.55 1899.47C1749.78 1908.33 1751.17 1917.2 1754.14 1925.85C1757.1 1934.5 1761.7 1942.93 1768.91 1950.14C1779.29 1960.52 1794.71 1967.93 1811.34 1972.37C1838.81 1979.63 1869.03 1979.25 1896.13 1971.3C1943.49 1956.44 1983.58 1929.78 2008.01 1896.89C2016.76 1885.12 2023.55 1872.57 2027.95 1859.59C2029.69 1854.43 2031.06 1849.18 2031.13 1843.87C2031.19 1838.55 2029.9 1833.16 2026.56 1828.44H2026.63Z" fill="url(#paint21_radial_1220_2721)"/>
</g>
<path d="M2066 1751.82C2062.61 1742.58 2056.64 1734.4 2049.34 1727.8C2042.05 1721.21 2033.44 1716.15 2024.38 1712.3C2006.26 1704.61 1986.56 1701.76 1967.21 1698.11L1912.58 1687.43C1893.59 1684.2 1873.94 1682.14 1855.13 1686.38C1838.68 1690.09 1823.47 1698.6 1811.02 1709.98C1798.56 1721.36 1788.84 1735.55 1781.85 1750.98C1769.53 1778.01 1765.66 1808.43 1768.01 1838.04C1769.77 1860.07 1775.33 1882.77 1789.85 1899.46C1801.57 1912.93 1818.2 1921.34 1835.33 1926.41C1864.82 1935.14 1896.97 1934.67 1926.21 1925.11C1974.82 1908.68 2016.86 1877.06 2046.12 1834.91C2055.66 1821.1 2063.8 1806.05 2067.49 1789.69C2070.3 1777.14 2070.4 1763.92 2066 1751.91V1751.82Z" fill="#020204"/>
<mask id="mask6_1220_2721" style="mask-type:luminance" maskUnits="userSpaceOnUse" x="1767" y="1683" width="303" height="250">
<path d="M2066 1751.82C2062.61 1742.58 2056.64 1734.4 2049.34 1727.8C2042.05 1721.21 2033.44 1716.15 2024.38 1712.3C2006.26 1704.61 1986.56 1701.76 1967.21 1698.11L1912.58 1687.43C1893.59 1684.2 1873.94 1682.14 1855.13 1686.38C1838.68 1690.09 1823.47 1698.6 1811.02 1709.98C1798.56 1721.36 1788.84 1735.55 1781.85 1750.98C1769.53 1778.01 1765.66 1808.43 1768.01 1838.04C1769.77 1860.07 1775.33 1882.77 1789.85 1899.46C1801.57 1912.93 1818.2 1921.34 1835.33 1926.41C1864.82 1935.14 1896.97 1934.67 1926.21 1925.11C1974.82 1908.68 2016.86 1877.06 2046.12 1834.91C2055.66 1821.1 2063.8 1806.05 2067.49 1789.69C2070.3 1777.14 2070.4 1763.92 2066 1751.91" fill="white"/>
</mask>
<g mask="url(#mask6_1220_2721)">
<g filter="url(#filter29_f_1220_2721)">
<path d="M1865.43 1677.58C1860.87 1677.82 1856.33 1678.35 1851.83 1679.15C1822.79 1684.31 1796.2 1702.66 1781.23 1728.05C1770.65 1746.15 1765.82 1767.03 1767.37 1787.94C1767.98 1773.36 1771.8 1759.09 1778.87 1746.35C1790.87 1724.74 1812.62 1708.44 1836.93 1703.99C1852 1701.24 1867.33 1702.9 1882.44 1704.77C1896.94 1706.58 1911.56 1708.48 1925.85 1711.58C1947.95 1716.36 1969.82 1723.71 1988.37 1736.68C1992.68 1739.69 1996.73 1743.12 2000.13 1747.14C2003.53 1751.16 2006.17 1755.83 2007.19 1761C2008.68 1768.56 2006.52 1776.51 2002.76 1783.23C1998.99 1789.95 1993.85 1795.84 1988.37 1801.27C1983.93 1805.67 1979.2 1809.92 1974.51 1814.07C1995.93 1809.92 2017.62 1804.05 2035.43 1791.59C2042.96 1786.31 2049.78 1780 2054.26 1771.97C2058.73 1763.94 2060.63 1754.23 2058.44 1745.3C2056.96 1739.28 2053.67 1733.74 2049.55 1729.09C2045.44 1724.45 2040.52 1720.62 2035.44 1717.07C2013.01 1701.36 1986.78 1691.29 1959.6 1688.03C1942.2 1684.82 1924.62 1682.12 1907.05 1679.91C1893.3 1678.19 1879.27 1676.79 1865.46 1677.57L1865.43 1677.58Z" fill="url(#paint22_radial_1220_2721)"/>
</g>
</g>
<mask id="mask7_1220_2721" style="mask-type:luminance" maskUnits="userSpaceOnUse" x="1767" y="1683" width="303" height="250">
<path d="M2066 1751.82C2062.61 1742.58 2056.64 1734.4 2049.34 1727.8C2042.05 1721.21 2033.44 1716.15 2024.38 1712.3C2006.26 1704.61 1986.56 1701.76 1967.21 1698.11L1912.58 1687.43C1893.59 1684.2 1873.94 1682.14 1855.13 1686.38C1838.68 1690.09 1823.47 1698.6 1811.02 1709.98C1798.56 1721.36 1788.84 1735.55 1781.85 1750.98C1769.53 1778.01 1765.66 1808.43 1768.01 1838.04C1769.77 1860.07 1775.33 1882.77 1789.85 1899.46C1801.57 1912.93 1818.2 1921.34 1835.33 1926.41C1864.82 1935.14 1896.97 1934.67 1926.21 1925.11C1974.82 1908.68 2016.86 1877.06 2046.12 1834.91C2055.66 1821.1 2063.8 1806.05 2067.49 1789.69C2070.3 1777.14 2070.4 1763.92 2066 1751.91" fill="white"/>
</mask>
<g mask="url(#mask7_1220_2721)">
<g filter="url(#filter30_f_1220_2721)">
<path d="M1865.43 1677.58C1860.87 1677.82 1856.33 1678.35 1851.83 1679.15C1822.79 1684.31 1796.2 1702.66 1781.23 1728.05C1770.65 1746.15 1765.82 1767.03 1767.37 1787.94C1767.98 1773.36 1771.8 1759.09 1778.87 1746.35C1790.87 1724.74 1812.62 1708.44 1836.93 1703.99C1852 1701.24 1867.33 1702.9 1882.44 1704.77C1896.94 1706.58 1911.56 1708.48 1925.85 1711.58C1947.95 1716.36 1969.82 1723.71 1988.37 1736.68C1992.68 1739.69 1996.73 1743.12 2000.13 1747.14C2003.53 1751.16 2006.17 1755.83 2007.19 1761C2008.68 1768.56 2006.52 1776.51 2002.76 1783.23C1998.99 1789.95 1993.85 1795.84 1988.37 1801.27C1983.93 1805.67 1979.2 1809.92 1974.51 1814.07C1995.93 1809.92 2017.62 1804.05 2035.43 1791.59C2042.96 1786.31 2049.78 1780 2054.26 1771.97C2058.73 1763.94 2060.63 1754.23 2058.44 1745.3C2056.96 1739.28 2053.67 1733.74 2049.55 1729.09C2045.44 1724.45 2040.52 1720.62 2035.44 1717.07C2013.01 1701.36 1986.78 1691.29 1959.6 1688.03C1942.2 1684.82 1924.62 1682.12 1907.05 1679.91C1893.3 1678.19 1879.27 1676.79 1865.46 1677.57L1865.43 1677.58Z" fill="url(#paint23_linear_1220_2721)"/>
</g>
</g>
<path d="M913.768 907.435L772.16 1084.72C742.595 1121.38 712.326 1158.32 693.079 1201.3C676.544 1238.22 668.728 1278.34 657.389 1317.2C644.518 1361.31 627.045 1403.97 607.43 1445.53C589.313 1483.9 569.354 1521.37 549.354 1558.8C534.81 1586.04 520.023 1613.87 514.977 1644.33C510.994 1668.4 513.304 1693.23 519.446 1716.85C525.588 1740.46 535.346 1762.96 546.542 1784.68C593.965 1877.36 665.121 1957.25 749.406 2018.37C787.649 2046.1 828.629 2070.08 871.6 2089.71C894.881 2100.34 919.416 2109.83 945.007 2110.27C957.81 2110.49 970.731 2108.39 982.446 2103.25C994.162 2098.1 1004.62 2089.82 1011.59 2079.09C1020.15 2065.88 1023.06 2049.48 1021.34 2033.84C1019.63 2018.2 1013.52 2003.27 1005.33 1989.82C985.25 1956.99 953.743 1933.25 923.358 1909.71C857.75 1858.88 794.277 1805.28 733.548 1748.71C716.393 1732.72 699.255 1716.25 687.272 1696.12C675.606 1676.5 669.297 1654.16 665.029 1631.74C653.313 1570.24 656.326 1505.52 677.247 1446.53C685.431 1423.45 696.243 1401.41 706.686 1379.25C724.762 1340.84 741.892 1301.71 765.683 1266.55C795.29 1222.78 834.863 1185.71 858.989 1138.7C879.357 1099.03 887.608 1054.42 895.491 1010.52L913.768 907.435Z" fill="#020204"/>
<mask id="mask8_1220_2721" style="mask-type:luminance" maskUnits="userSpaceOnUse" x="513" y="909" width="515" height="1193">
<path d="M910.103 909C910.103 909 867.375 962.097 844.019 994.75C820.663 1027.4 796.01 1050.4 772.16 1084.71C748.311 1119.02 710.528 1163.64 693.08 1201.28C675.632 1238.92 673.666 1276.89 657.389 1317.18C641.113 1357.46 626.427 1406.23 607.431 1445.52C588.435 1484.8 562.493 1526.56 549.355 1558.79C536.217 1591.01 517.472 1606.69 514.978 1644.31C512.484 1681.94 510.15 1713.91 546.543 1784.67C582.937 1855.42 690.779 1968.83 749.407 2018.35C808.035 2067.87 827.985 2078.81 871.601 2089.7C915.216 2100.58 987.552 2114.79 1011.6 2079.07C1035.65 2043.35 1030.61 2029.15 1005.33 1989.81C980.037 1950.47 964.949 1945.45 923.35 1909.7C881.752 1873.96 767.391 1785.24 733.541 1748.7C699.691 1712.15 674.067 1720.15 687.264 1696.11C700.461 1672.08 668.795 1662.56 665.021 1631.73C658.628 1579.48 672.921 1475.25 677.239 1446.52C681.557 1417.79 687.482 1422.05 706.679 1379.24C725.876 1336.43 741.189 1307.07 765.675 1266.54C790.161 1226.02 837.852 1181.79 858.981 1138.69C880.111 1095.6 888.304 1048.98 895.484 1010.51C902.664 972.03 910.103 909 910.103 909Z" fill="white"/>
</mask>
<g mask="url(#mask8_1220_2721)">
<g opacity="0.95" filter="url(#filter31_f_1220_2721)">
<path d="M778.47 1240.87C759.018 1258.79 742.241 1279.42 728.654 1302.11C706.327 1339.43 693.173 1381.34 676.955 1421.69C664.871 1451.73 650.804 1481.88 649.113 1514.21C648.252 1530.81 650.703 1547.4 651.264 1564.02C651.825 1580.64 650.277 1597.91 642.059 1612.42C635.256 1624.56 623.933 1634.1 610.82 1638.73C628.639 1644.73 644.211 1656.01 655.465 1671.07C664.796 1683.63 670.762 1698.3 678.863 1711.66C685.449 1722.52 693.532 1732.58 703.491 1740.49C713.449 1748.4 725.332 1754.05 737.943 1755.66C746.62 1756.71 755.421 1755.88 763.747 1753.22C772.073 1750.56 779.727 1746.14 786.186 1740.25C770.077 1589.32 784.83 1435.16 829.283 1290.03C832.086 1280.87 835.032 1271.64 835.726 1262.08C836.421 1252.53 834.638 1242.43 828.831 1234.82C825.735 1230.76 821.567 1227.54 816.864 1225.55C812.161 1223.56 806.939 1222.83 801.885 1223.44C796.83 1224.05 791.927 1226 787.826 1229.05C783.726 1232.09 780.445 1236.22 778.395 1240.89L778.47 1240.87Z" fill="#7C7C7C"/>
</g>
</g>
<mask id="mask9_1220_2721" style="mask-type:luminance" maskUnits="userSpaceOnUse" x="231" y="1710" width="799" height="790">
<path d="M571.33 1715.77C584.719 1710.22 599.765 1709.21 614.008 1711.84C628.251 1714.46 641.707 1720.62 653.699 1728.76C677.665 1745.04 695.44 1768.74 712.469 1792.19C751.566 1846.03 789.206 1900.99 823.307 1958.13C850.972 2004.47 876.395 2052.33 908.362 2095.81C929.233 2124.2 952.773 2150.54 973.743 2178.84C994.714 2207.15 1013.31 2237.89 1022.61 2271.87C1034.7 2316.03 1030.02 2364.7 1009 2405.37C994.212 2433.99 971.543 2458.53 943.961 2475.16C916.379 2491.8 883.96 2500.39 851.776 2499.18C800.612 2497.26 753.867 2471.69 706.302 2452.74C609.397 2414.14 504.124 2402.03 404.232 2371.97C373.52 2362.73 343.344 2351.8 312.432 2343.3C298.708 2339.53 284.733 2336.2 271.762 2330.33C258.791 2324.45 246.657 2315.68 239.444 2303.41C233.87 2293.92 231.51 2282.74 231.661 2271.72C231.812 2260.71 234.389 2249.84 238.138 2239.49C245.636 2218.79 257.745 2200.04 265.921 2179.6C279.268 2146.21 281.67 2109.4 279.871 2073.49C278.072 2037.57 272.256 2001.98 269.787 1966.12C268.699 1950.11 268.281 1933.88 271.335 1918.12C274.389 1902.36 281.176 1886.95 292.741 1875.82C303.402 1865.55 317.553 1859.46 332.039 1856.43C346.524 1853.4 361.453 1853.28 376.257 1853.6C391.06 1853.93 405.88 1854.72 420.642 1853.52C435.404 1852.31 450.207 1849 463.069 1841.65C475.287 1834.67 485.279 1824.29 493.563 1812.92C501.848 1801.54 508.542 1789.1 515.404 1776.82C522.266 1764.53 529.363 1752.28 538.35 1741.45C547.338 1730.62 558.35 1721.17 571.346 1715.79" fill="white"/>
</mask>
<g mask="url(#mask9_1220_2721)">
<path d="M571.33 1715.77C584.719 1710.22 599.765 1709.21 614.008 1711.84C628.251 1714.46 641.707 1720.62 653.699 1728.76C677.665 1745.04 695.44 1768.74 712.469 1792.19C751.566 1846.03 789.206 1900.99 823.307 1958.13C850.972 2004.47 876.395 2052.33 908.362 2095.81C929.233 2124.2 952.773 2150.54 973.743 2178.84C994.714 2207.15 1013.31 2237.89 1022.61 2271.87C1034.7 2316.03 1030.02 2364.7 1009 2405.37C994.212 2433.99 971.543 2458.53 943.961 2475.16C916.379 2491.8 883.96 2500.39 851.776 2499.18C800.612 2497.26 753.867 2471.69 706.302 2452.74C609.397 2414.14 504.124 2402.03 404.232 2371.97C373.52 2362.73 343.344 2351.8 312.432 2343.3C298.708 2339.53 284.733 2336.2 271.762 2330.33C258.791 2324.45 246.657 2315.68 239.444 2303.41C233.87 2293.92 231.51 2282.74 231.661 2271.72C231.812 2260.71 234.389 2249.84 238.138 2239.49C245.636 2218.79 257.745 2200.04 265.921 2179.6C279.268 2146.21 281.67 2109.4 279.871 2073.49C278.072 2037.57 272.256 2001.98 269.787 1966.12C268.699 1950.11 268.281 1933.88 271.335 1918.12C274.389 1902.36 281.176 1886.95 292.741 1875.82C303.402 1865.55 317.553 1859.46 332.039 1856.43C346.524 1853.4 361.453 1853.28 376.257 1853.6C391.06 1853.93 405.88 1854.72 420.642 1853.52C435.404 1852.31 450.207 1849 463.069 1841.65C475.287 1834.67 485.279 1824.29 493.563 1812.92C501.848 1801.54 508.542 1789.1 515.404 1776.82C522.266 1764.53 529.363 1752.28 538.35 1741.45C547.338 1730.62 558.35 1721.17 571.346 1715.79L571.33 1715.77Z" fill="url(#paint24_linear_1220_2721)"/>
<g filter="url(#filter32_f_1220_2721)">
<path d="M592.442 1738.86C604.618 1733.96 618.333 1733.43 631.128 1736.32C643.924 1739.22 655.815 1745.53 666.175 1753.45C686.911 1769.47 701.322 1792.06 715.163 1814.29C748.385 1868.12 780.854 1922.52 811.532 1978.03C834.771 2019.81 856.93 2062.49 885.482 2100.88C904.428 2126.33 926.043 2149.66 945.383 2174.83C964.722 2199.99 981.952 2227.4 990.513 2257.95C1001.53 2297.33 997.065 2340.79 978.002 2377.05C964.199 2403.2 943.373 2424.97 917.868 2439.93C892.297 2454.79 863.005 2462.01 833.457 2460.75C786.611 2458.59 743.832 2435.19 699.732 2419.32C615.187 2388.64 523.554 2384.53 436.834 2360.58C405.746 2352.14 375.436 2340.89 344.197 2333.01C330.372 2329.52 316.305 2326.68 303.175 2321.13C290.046 2315.58 277.677 2306.99 270.556 2294.64C265.259 2285.46 263.142 2274.66 263.468 2264.07C263.794 2253.47 266.481 2243.15 270.163 2233.15C277.711 2213.35 289.577 2195.5 297.192 2175.62C308.74 2145.71 310.163 2112.83 308.021 2080.84C305.878 2048.86 300.322 2017.16 298.372 1985.16C297.502 1970.85 297.368 1956.37 300.263 1942.35C303.159 1928.32 309.268 1914.73 319.469 1904.59C330.515 1893.63 345.745 1887.65 361.117 1885.31C376.49 1882.97 392.13 1883.99 407.603 1885.37C423.076 1886.75 438.608 1888.49 454.131 1887.56C469.654 1886.63 485.395 1882.85 498.232 1874.11C509.922 1866.2 518.701 1854.66 525.378 1842.33C532.056 1829.99 536.826 1816.76 541.914 1803.69C547.002 1790.62 552.517 1777.57 560.508 1766.04C568.5 1754.5 579.22 1744.24 592.358 1738.96" fill="#D99A03"/>
</g>
<g filter="url(#filter33_f_1220_2721)">
<path d="M581.17 1708.45C592.97 1702.6 606.861 1701.4 619.798 1704.03C632.736 1706.67 644.719 1712.99 654.911 1721.26C675.288 1737.7 688.217 1761.32 700.268 1784.42C727.925 1837.46 753.682 1891.66 786.779 1941.61C810.796 1977.77 838.495 2011.6 862.78 2047.66C895.717 2096.56 922.496 2150.36 933.542 2207.97C940.973 2246.73 940.738 2288.51 922.06 2323.5C909.759 2346.48 889.843 2365.42 866.303 2377.13C842.763 2388.84 815.733 2393.7 789.398 2391.38C747.942 2387.72 710.284 2367.34 671.263 2353.12C602.016 2327.89 527.178 2321.87 455.914 2302.83C425.855 2294.8 396.499 2284.46 365.955 2278.17C352.515 2275.36 338.808 2273.32 325.98 2268.48C313.151 2263.63 300.992 2255.61 294.431 2243.74C289.828 2235.39 288.264 2225.62 288.958 2216.15C289.653 2206.68 292.473 2197.45 296.197 2188.69C303.628 2171.15 314.607 2155.07 320.465 2136.95C328.942 2110.3 325.461 2081.42 319.092 2054.21C312.724 2027 303.552 2000.3 300.732 1972.52C299.477 1960.15 299.502 1947.54 302.322 1935.41C305.142 1923.29 310.917 1911.65 319.979 1902.95C331.636 1891.76 347.963 1886.19 364.189 1884.63C380.415 1883.07 396.758 1885.2 412.892 1887.5C429.026 1889.8 445.261 1892.43 461.554 1891.61C477.847 1890.79 494.425 1886.6 507.186 1876.62C519.806 1866.76 527.739 1852.07 532.291 1836.88C536.843 1821.68 538.316 1805.8 540.182 1790.07C542.048 1774.34 544.367 1758.46 550.475 1743.8C556.584 1729.14 566.877 1715.63 581.271 1708.49L581.17 1708.45Z" fill="#F5BD0C"/>
</g>
<g filter="url(#filter34_f_1220_2721)">
<path d="M728.904 1840.87C750.712 1880.31 764.018 1925.58 785.641 1965.35C805.541 2001.94 828.186 2039.61 848.403 2073.35C857.399 2088.37 878.387 2111.47 899.617 2147.3C918.848 2179.77 938.262 2225.1 949.132 2240.33C942.89 2222.5 930.053 2174.66 914.739 2140.55C900.513 2108.67 883.776 2090.49 873.508 2073.35C853.29 2039.61 831.525 2009.29 810.746 1977.12C782.085 1932.75 760.235 1883.1 728.904 1840.88V1840.87Z" fill="url(#paint25_linear_1220_2721)"/>
</g>
</g>
</g>
<defs>
<filter id="filter0_f_1220_2721" x="976.745" y="702.542" width="537.03" height="318.22" filterUnits="userSpaceOnUse" color-interpolation-filters="sRGB">
<feFlood flood-opacity="0" result="BackgroundImageFix"/>
<feBlend mode="normal" in="SourceGraphic" in2="BackgroundImageFix" result="shape"/>
<feGaussianBlur stdDeviation="0.436168" result="effect1_foregroundBlur_1220_2721"/>
</filter>
<filter id="filter1_f_1220_2721" x="972.586" y="679.682" width="513.048" height="233.549" filterUnits="userSpaceOnUse" color-interpolation-filters="sRGB">
<feFlood flood-opacity="0" result="BackgroundImageFix"/>
<feBlend mode="normal" in="SourceGraphic" in2="BackgroundImageFix" result="shape"/>
<feGaussianBlur stdDeviation="0.191623" result="effect1_foregroundBlur_1220_2721"/>
</filter>
<filter id="filter2_f_1220_2721" x="973.175" y="548.608" width="505.709" height="255.658" filterUnits="userSpaceOnUse" color-interpolation-filters="sRGB">
<feFlood flood-opacity="0" result="BackgroundImageFix"/>
<feBlend mode="normal" in="SourceGraphic" in2="BackgroundImageFix" result="shape"/>
<feGaussianBlur stdDeviation="0.291564" result="effect1_foregroundBlur_1220_2721"/>
</filter>
<filter id="filter3_f_1220_2721" x="1381.04" y="122.021" width="139.566" height="132.365" filterUnits="userSpaceOnUse" color-interpolation-filters="sRGB">
<feFlood flood-opacity="0" result="BackgroundImageFix"/>
<feBlend mode="normal" in="SourceGraphic" in2="BackgroundImageFix" result="shape"/>
<feGaussianBlur stdDeviation="0.429496" result="effect1_foregroundBlur_1220_2721"/>
</filter>
<filter id="filter4_f_1220_2721" x="1361.1" y="513.725" width="31.8657" height="24.1206" filterUnits="userSpaceOnUse" color-interpolation-filters="sRGB">
<feFlood flood-opacity="0" result="BackgroundImageFix"/>
<feBlend mode="normal" in="SourceGraphic" in2="BackgroundImageFix" result="shape"/>
<feGaussianBlur stdDeviation="0.0533428" result="effect1_foregroundBlur_1220_2721"/>
</filter>
<filter id="filter5_f_1220_2721" x="1361.23" y="477.414" width="58.8315" height="57.9848" filterUnits="userSpaceOnUse" color-interpolation-filters="sRGB">
<feFlood flood-opacity="0" result="BackgroundImageFix"/>
<feBlend mode="normal" in="SourceGraphic" in2="BackgroundImageFix" result="shape"/>
<feGaussianBlur stdDeviation="0.111184" result="effect1_foregroundBlur_1220_2721"/>
</filter>
<filter id="filter6_f_1220_2721" x="1379.47" y="319.081" width="128.521" height="118.605" filterUnits="userSpaceOnUse" color-interpolation-filters="sRGB">
<feFlood flood-opacity="0" result="BackgroundImageFix"/>
<feBlend mode="normal" in="SourceGraphic" in2="BackgroundImageFix" result="shape"/>
<feGaussianBlur stdDeviation="0.0317057" result="effect1_foregroundBlur_1220_2721"/>
</filter>
<filter id="filter7_f_1220_2721" x="1033.73" y="335.438" width="120.151" height="105.615" filterUnits="userSpaceOnUse" color-interpolation-filters="sRGB">
<feFlood flood-opacity="0" result="BackgroundImageFix"/>
<feBlend mode="normal" in="SourceGraphic" in2="BackgroundImageFix" result="shape"/>
<feGaussianBlur stdDeviation="0.0289208" result="effect1_foregroundBlur_1220_2721"/>
</filter>
<filter id="filter8_f_1220_2721" x="1048.07" y="485.349" width="44.3517" height="70.9152" filterUnits="userSpaceOnUse" color-interpolation-filters="sRGB">
<feFlood flood-opacity="0" result="BackgroundImageFix"/>
<feBlend mode="normal" in="SourceGraphic" in2="BackgroundImageFix" result="shape"/>
<feGaussianBlur stdDeviation="0.109899" result="effect1_foregroundBlur_1220_2721"/>
</filter>
<filter id="filter9_f_1220_2721" x="1096.53" y="765.58" width="116.954" height="82.535" filterUnits="userSpaceOnUse" color-interpolation-filters="sRGB">
<feFlood flood-opacity="0" result="BackgroundImageFix"/>
<feBlend mode="normal" in="SourceGraphic" in2="BackgroundImageFix" result="shape"/>
<feGaussianBlur stdDeviation="0.192591" result="effect1_foregroundBlur_1220_2721"/>
</filter>
<filter id="filter10_f_1220_2721" x="992.683" y="630.966" width="443.343" height="192.474" filterUnits="userSpaceOnUse" color-interpolation-filters="sRGB">
<feFlood flood-opacity="0" result="BackgroundImageFix"/>
<feBlend mode="normal" in="SourceGraphic" in2="BackgroundImageFix" result="shape"/>
<feGaussianBlur stdDeviation="0.162385" result="effect1_foregroundBlur_1220_2721"/>
</filter>
<filter id="filter11_f_1220_2721" x="1185.25" y="639.131" width="106.634" height="131.534" filterUnits="userSpaceOnUse" color-interpolation-filters="sRGB">
<feFlood flood-opacity="0" result="BackgroundImageFix"/>
<feBlend mode="normal" in="SourceGraphic" in2="BackgroundImageFix" result="shape"/>
<feGaussianBlur stdDeviation="0.18188" result="effect1_foregroundBlur_1220_2721"/>
</filter>
<filter id="filter12_f_1220_2721" x="1221.19" y="585.17" width="47.4947" height="24.9712" filterUnits="userSpaceOnUse" color-interpolation-filters="sRGB">
<feFlood flood-opacity="0" result="BackgroundImageFix"/>
<feBlend mode="normal" in="SourceGraphic" in2="BackgroundImageFix" result="shape"/>
<feGaussianBlur stdDeviation="0.0235651" result="effect1_foregroundBlur_1220_2721"/>
</filter>
<filter id="filter13_f_1220_2721" x="1109.18" y="589.474" width="19.1255" height="21.0786" filterUnits="userSpaceOnUse" color-interpolation-filters="sRGB">
<feFlood flood-opacity="0" result="BackgroundImageFix"/>
<feBlend mode="normal" in="SourceGraphic" in2="BackgroundImageFix" result="shape"/>
<feGaussianBlur stdDeviation="0.0235651" result="effect1_foregroundBlur_1220_2721"/>
</filter>
<filter id="filter14_f_1220_2721" x="1432.44" y="658.074" width="48.5778" height="59.4431" filterUnits="userSpaceOnUse" color-interpolation-filters="sRGB">
<feFlood flood-opacity="0" result="BackgroundImageFix"/>
<feBlend mode="normal" in="SourceGraphic" in2="BackgroundImageFix" result="shape"/>
<feGaussianBlur stdDeviation="0.073168" result="effect1_foregroundBlur_1220_2721"/>
</filter>
<filter id="filter15_f_1220_2721" x="1685.43" y="1171.23" width="236.399" height="679.259" filterUnits="userSpaceOnUse" color-interpolation-filters="sRGB">
<feFlood flood-opacity="0" result="BackgroundImageFix"/>
<feBlend mode="normal" in="SourceGraphic" in2="BackgroundImageFix" result="shape"/>
<feGaussianBlur stdDeviation="0.292242" result="effect1_foregroundBlur_1220_2721"/>
</filter>
<filter id="filter16_f_1220_2721" x="785.913" y="1048.99" width="299.391" height="280.159" filterUnits="userSpaceOnUse" color-interpolation-filters="sRGB">
<feFlood flood-opacity="0" result="BackgroundImageFix"/>
<feBlend mode="normal" in="SourceGraphic" in2="BackgroundImageFix" result="shape"/>
<feGaussianBlur stdDeviation="0.147995" result="effect1_foregroundBlur_1220_2721"/>
</filter>
<filter id="filter17_f_1220_2721" x="1234.18" y="1026.82" width="451.044" height="312.978" filterUnits="userSpaceOnUse" color-interpolation-filters="sRGB">
<feFlood flood-opacity="0" result="BackgroundImageFix"/>
<feBlend mode="normal" in="SourceGraphic" in2="BackgroundImageFix" result="shape"/>
<feGaussianBlur stdDeviation="0.243791" result="effect1_foregroundBlur_1220_2721"/>
</filter>
<filter id="filter18_f_1220_2721" x="1055.75" y="1062.79" width="182.206" height="194.75" filterUnits="userSpaceOnUse" color-interpolation-filters="sRGB">
<feFlood flood-opacity="0" result="BackgroundImageFix"/>
<feBlend mode="normal" in="SourceGraphic" in2="BackgroundImageFix" result="shape"/>
<feGaussianBlur stdDeviation="0.168169" result="effect1_foregroundBlur_1220_2721"/>
</filter>
<filter id="filter19_f_1220_2721" x="1064.74" y="1347.45" width="36.7821" height="503.596" filterUnits="userSpaceOnUse" color-interpolation-filters="sRGB">
<feFlood flood-opacity="0" result="BackgroundImageFix"/>
<feBlend mode="normal" in="SourceGraphic" in2="BackgroundImageFix" result="shape"/>
<feGaussianBlur stdDeviation="0.309774" result="effect1_foregroundBlur_1220_2721"/>
</filter>
<filter id="filter20_f_1220_2721" x="1561.58" y="756.849" width="102.672" height="114.243" filterUnits="userSpaceOnUse" color-interpolation-filters="sRGB">
<feFlood flood-opacity="0" result="BackgroundImageFix"/>
<feBlend mode="normal" in="SourceGraphic" in2="BackgroundImageFix" result="shape"/>
<feGaussianBlur stdDeviation="0.193019" result="effect1_foregroundBlur_1220_2721"/>
</filter>
<filter id="filter21_f_1220_2721" x="1550.6" y="1845.49" width="599.531" height="652.362" filterUnits="userSpaceOnUse" color-interpolation-filters="sRGB">
<feFlood flood-opacity="0" result="BackgroundImageFix"/>
<feBlend mode="normal" in="SourceGraphic" in2="BackgroundImageFix" result="shape"/>
<feGaussianBlur stdDeviation="0.479548" result="effect1_foregroundBlur_1220_2721"/>
</filter>
<filter id="filter22_f_1220_2721" x="1627.81" y="1766.22" width="665.933" height="675.246" filterUnits="userSpaceOnUse" color-interpolation-filters="sRGB">
<feFlood flood-opacity="0" result="BackgroundImageFix"/>
<feBlend mode="normal" in="SourceGraphic" in2="BackgroundImageFix" result="shape"/>
<feGaussianBlur stdDeviation="1.0238" result="effect1_foregroundBlur_1220_2721"/>
</filter>
<filter id="filter23_f_1220_2721" x="1655.34" y="1716.21" width="634.832" height="631.658" filterUnits="userSpaceOnUse" color-interpolation-filters="sRGB">
<feFlood flood-opacity="0" result="BackgroundImageFix"/>
<feBlend mode="normal" in="SourceGraphic" in2="BackgroundImageFix" result="shape"/>
<feGaussianBlur stdDeviation="0.806721" result="effect1_foregroundBlur_1220_2721"/>
</filter>
<filter id="filter24_f_1220_2721" x="1649.34" y="1776.65" width="460.909" height="74.9075" filterUnits="userSpaceOnUse" color-interpolation-filters="sRGB">
<feFlood flood-opacity="0" result="BackgroundImageFix"/>
<feBlend mode="normal" in="SourceGraphic" in2="BackgroundImageFix" result="shape"/>
<feGaussianBlur stdDeviation="0.102615" result="effect1_foregroundBlur_1220_2721"/>
</filter>
<filter id="filter25_f_1220_2721" x="1758.23" y="1289.67" width="86.2982" height="88.1038" filterUnits="userSpaceOnUse" color-interpolation-filters="sRGB">
<feFlood flood-opacity="0" result="BackgroundImageFix"/>
<feBlend mode="normal" in="SourceGraphic" in2="BackgroundImageFix" result="shape"/>
<feGaussianBlur stdDeviation="0.491044" result="effect1_foregroundBlur_1220_2721"/>
</filter>
<filter id="filter26_f_1220_2721" x="879.191" y="951.059" width="35.5385" height="36.6283" filterUnits="userSpaceOnUse" color-interpolation-filters="sRGB">
<feFlood flood-opacity="0" result="BackgroundImageFix"/>
<feBlend mode="normal" in="SourceGraphic" in2="BackgroundImageFix" result="shape"/>
<feGaussianBlur stdDeviation="0.137066" result="effect1_foregroundBlur_1220_2721"/>
</filter>
<filter id="filter27_f_1220_2721" x="1744.98" y="1799.17" width="287.369" height="246.423" filterUnits="userSpaceOnUse" color-interpolation-filters="sRGB">
<feFlood flood-opacity="0" result="BackgroundImageFix"/>
<feBlend mode="normal" in="SourceGraphic" in2="BackgroundImageFix" result="shape"/>
<feGaussianBlur stdDeviation="0.609264" result="effect1_foregroundBlur_1220_2721"/>
</filter>
<filter id="filter28_f_1220_2721" x="1745.72" y="1800.69" width="285.877" height="177.329" filterUnits="userSpaceOnUse" color-interpolation-filters="sRGB">
<feFlood flood-opacity="0" result="BackgroundImageFix"/>
<feBlend mode="normal" in="SourceGraphic" in2="BackgroundImageFix" result="shape"/>
<feGaussianBlur stdDeviation="0.236245" result="effect1_foregroundBlur_1220_2721"/>
</filter>
<filter id="filter29_f_1220_2721" x="1766.65" y="1676.91" width="293.146" height="137.603" filterUnits="userSpaceOnUse" color-interpolation-filters="sRGB">
<feFlood flood-opacity="0" result="BackgroundImageFix"/>
<feBlend mode="normal" in="SourceGraphic" in2="BackgroundImageFix" result="shape"/>
<feGaussianBlur stdDeviation="0.219584" result="effect1_foregroundBlur_1220_2721"/>
</filter>
<filter id="filter30_f_1220_2721" x="1766.65" y="1676.91" width="293.146" height="137.603" filterUnits="userSpaceOnUse" color-interpolation-filters="sRGB">
<feFlood flood-opacity="0" result="BackgroundImageFix"/>
<feBlend mode="normal" in="SourceGraphic" in2="BackgroundImageFix" result="shape"/>
<feGaussianBlur stdDeviation="0.219584" result="effect1_foregroundBlur_1220_2721"/>
</filter>
<filter id="filter31_f_1220_2721" x="610.335" y="1222.74" width="226.019" height="533.844" filterUnits="userSpaceOnUse" color-interpolation-filters="sRGB">
<feFlood flood-opacity="0" result="BackgroundImageFix"/>
<feBlend mode="normal" in="SourceGraphic" in2="BackgroundImageFix" result="shape"/>
<feGaussianBlur stdDeviation="0.242506" result="effect1_foregroundBlur_1220_2721"/>
</filter>
<filter id="filter32_f_1220_2721" x="261.754" y="1732.87" width="736.359" height="729.697" filterUnits="userSpaceOnUse" color-interpolation-filters="sRGB">
<feFlood flood-opacity="0" result="BackgroundImageFix"/>
<feBlend mode="normal" in="SourceGraphic" in2="BackgroundImageFix" result="shape"/>
<feGaussianBlur stdDeviation="0.840631" result="effect1_foregroundBlur_1220_2721"/>
</filter>
<filter id="filter33_f_1220_2721" x="287.766" y="1701.67" width="651.37" height="691.306" filterUnits="userSpaceOnUse" color-interpolation-filters="sRGB">
<feFlood flood-opacity="0" result="BackgroundImageFix"/>
<feBlend mode="normal" in="SourceGraphic" in2="BackgroundImageFix" result="shape"/>
<feGaussianBlur stdDeviation="0.517366" result="effect1_foregroundBlur_1220_2721"/>
</filter>
<filter id="filter34_f_1220_2721" x="728.746" y="1840.72" width="220.546" height="399.768" filterUnits="userSpaceOnUse" color-interpolation-filters="sRGB">
<feFlood flood-opacity="0" result="BackgroundImageFix"/>
<feBlend mode="normal" in="SourceGraphic" in2="BackgroundImageFix" result="shape"/>
<feGaussianBlur stdDeviation="0.0792644" result="effect1_foregroundBlur_1220_2721"/>
</filter>
<radialGradient id="paint0_radial_1220_2721" cx="0" cy="0" r="1" gradientUnits="userSpaceOnUse" gradientTransform="translate(32324.7 47146.1) rotate(-2.41003) scale(2082.7 5097.7)">
<stop stop-color="#FEFEFC"/>
<stop offset="0.757" stop-color="#FEFEFC"/>
<stop offset="1" stop-color="#D4D4D4"/>
</radialGradient>
<radialGradient id="paint1_radial_1220_2721" cx="0" cy="0" r="1" gradientUnits="userSpaceOnUse" gradientTransform="translate(58023.7 49377.6) rotate(-1.81001) scale(3728.76 5388.4)">
<stop stop-color="#FEFEFC"/>
<stop offset="0.757" stop-color="#FEFEFC"/>
<stop offset="1" stop-color="#D4D4D4"/>
</radialGradient>
<radialGradient id="paint2_radial_1220_2721" cx="0" cy="0" r="1" gradientUnits="userSpaceOnUse" gradientTransform="translate(61899.6 -16288.7) rotate(-36.0085) scale(3416.16 2266.22)">
<stop stop-color="#020204"/>
<stop offset="0.734" stop-color="#020204"/>
<stop offset="1" stop-color="#5C5C5C"/>
</radialGradient>
<linearGradient id="paint3_linear_1220_2721" x1="19053.5" y1="8117.21" x2="19439" y2="8580.49" gradientUnits="userSpaceOnUse">
<stop stop-color="#949494" stop-opacity="0.392"/>
<stop offset="0.5" stop-color="#949494"/>
<stop offset="1" stop-color="#949494" stop-opacity="0.392"/>
</linearGradient>
<linearGradient id="paint4_linear_1220_2721" x1="36715.9" y1="34993.1" x2="43686" y2="40718.4" gradientUnits="userSpaceOnUse">
<stop stop-color="#747474"/>
<stop offset="0.125" stop-color="#8C8C8C"/>
<stop offset="0.25" stop-color="#A4A4A4"/>
<stop offset="0.5" stop-color="#D4D4D4"/>
<stop offset="0.619" stop-color="#D4D4D4"/>
<stop offset="1" stop-color="#7C7C7C"/>
</linearGradient>
<linearGradient id="paint5_linear_1220_2721" x1="3370.93" y1="12825.9" x2="5059.34" y2="14553.3" gradientUnits="userSpaceOnUse">
<stop stop-color="#646464" stop-opacity="0"/>
<stop offset="0.306" stop-color="#646464" stop-opacity="0.583"/>
<stop offset="0.47" stop-color="#646464"/>
<stop offset="0.728" stop-color="#646464" stop-opacity="0.257"/>
<stop offset="1" stop-color="#646464" stop-opacity="0"/>
</linearGradient>
<linearGradient id="paint6_linear_1220_2721" x1="-2059.87" y1="11588.6" x2="-651.074" y2="13132.3" gradientUnits="userSpaceOnUse">
<stop stop-color="#646464" stop-opacity="0"/>
<stop offset="0.306" stop-color="#646464" stop-opacity="0.583"/>
<stop offset="0.47" stop-color="#646464"/>
<stop offset="0.728" stop-color="#646464" stop-opacity="0.257"/>
<stop offset="1" stop-color="#646464" stop-opacity="0"/>
</linearGradient>
<linearGradient id="paint7_linear_1220_2721" x1="8252.12" y1="9792.78" x2="8731.79" y2="10327.2" gradientUnits="userSpaceOnUse">
<stop stop-color="#757574" stop-opacity="0"/>
<stop offset="0.263" stop-color="#757574"/>
<stop offset="0.5" stop-color="#757574"/>
<stop offset="1" stop-color="#757574" stop-opacity="0"/>
</linearGradient>
<radialGradient id="paint8_radial_1220_2721" cx="0" cy="0" r="1" gradientUnits="userSpaceOnUse" gradientTransform="translate(153326 -24751.3) rotate(-22.428) scale(16095.5 5591.88)">
<stop stop-color="#D2940A"/>
<stop offset="0.751" stop-color="#D89C08"/>
<stop offset="0.866" stop-color="#B67E07"/>
<stop offset="1" stop-color="#946106"/>
</radialGradient>
<linearGradient id="paint9_linear_1220_2721" x1="24621.9" y1="40841.5" x2="53121.8" y2="40399.1" gradientUnits="userSpaceOnUse">
<stop stop-color="#AD780A"/>
<stop offset="0.12" stop-color="#D89E08"/>
<stop offset="0.255" stop-color="#EDB80B"/>
<stop offset="0.392" stop-color="#EBC80D"/>
<stop offset="0.527" stop-color="#F5D838"/>
<stop offset="0.769" stop-color="#F6D811"/>
<stop offset="1" stop-color="#F5CD31"/>
</linearGradient>
<radialGradient id="paint10_radial_1220_2721" cx="0" cy="0" r="1" gradientUnits="userSpaceOnUse" gradientTransform="translate(4902.94 2724.92) scale(153.104 46.8724)">
<stop stop-color="#3A2903"/>
<stop offset="0.555" stop-color="#735208"/>
<stop offset="1" stop-color="#AC8C04"/>
</radialGradient>
<radialGradient id="paint11_radial_1220_2721" cx="0" cy="0" r="1" gradientUnits="userSpaceOnUse" gradientTransform="translate(2310.61 3915.17) scale(29.2137 34.6313)">
<stop stop-color="#3A2903"/>
<stop offset="0.555" stop-color="#735208"/>
<stop offset="1" stop-color="#AC8C04"/>
</radialGradient>
<linearGradient id="paint12_linear_1220_2721" x1="12017.4" y1="9945.93" x2="12047.7" y2="10103.3" gradientUnits="userSpaceOnUse">
<stop stop-color="#F5CE2D"/>
<stop offset="1" stop-color="#D79B08"/>
</linearGradient>
<radialGradient id="paint13_radial_1220_2721" cx="0" cy="0" r="1" gradientUnits="userSpaceOnUse" gradientTransform="translate(33308.7 1680.18) rotate(-9.34942) scale(4247.49 1821.89)">
<stop stop-color="#C8C8C8"/>
<stop offset="1" stop-color="#797978"/>
</radialGradient>
<radialGradient id="paint14_radial_1220_2721" cx="0" cy="0" r="1" gradientUnits="userSpaceOnUse" gradientTransform="translate(-66594.3 48135.8) rotate(180) scale(5716.32 5845.52)">
<stop/>
<stop offset="1" stop-opacity="0.25"/>
</radialGradient>
<radialGradient id="paint15_radial_1220_2721" cx="0" cy="0" r="1" gradientUnits="userSpaceOnUse" gradientTransform="translate(139303 57291.8) scale(12327.8 6523.71)">
<stop/>
<stop offset="1" stop-opacity="0.25"/>
</radialGradient>
<radialGradient id="paint16_radial_1220_2721" cx="0" cy="0" r="1" gradientUnits="userSpaceOnUse" gradientTransform="translate(48659.8 47694.6) scale(1968.73 2250.49)">
<stop/>
<stop offset="1" stop-opacity="0.25"/>
</radialGradient>
<linearGradient id="paint17_linear_1220_2721" x1="18455.7" y1="212526" x2="21063.7" y2="230411" gradientUnits="userSpaceOnUse">
<stop/>
<stop offset="1" stop-opacity="0"/>
</linearGradient>
<linearGradient id="paint18_linear_1220_2721" x1="321506" y1="279086" x2="357883" y2="221900" gradientUnits="userSpaceOnUse">
<stop stop-color="#3E2A06"/>
<stop offset="1" stop-color="#AD780A"/>
</linearGradient>
<linearGradient id="paint19_linear_1220_2721" x1="22447.5" y1="23350.4" x2="22430.2" y2="24310" gradientUnits="userSpaceOnUse">
<stop stop-color="#F3CD0C"/>
<stop offset="1" stop-color="#F3CD0C" stop-opacity="0"/>
</linearGradient>
<radialGradient id="paint20_radial_1220_2721" cx="0" cy="0" r="1" gradientUnits="userSpaceOnUse" gradientTransform="translate(106545 138758) rotate(15) scale(6500.85 5843.33)">
<stop stop-color="#110800"/>
<stop offset="0.591" stop-color="#A65A00" stop-opacity="0.8"/>
<stop offset="1" stop-color="#FF921E" stop-opacity="0"/>
</radialGradient>
<radialGradient id="paint21_radial_1220_2721" cx="0" cy="0" r="1" gradientUnits="userSpaceOnUse" gradientTransform="translate(106545 100811) rotate(10.9628) scale(6396.07 4293.5)">
<stop stop-color="#110800"/>
<stop offset="0.591" stop-color="#A65A00" stop-opacity="0.8"/>
<stop offset="1" stop-color="#FF921E" stop-opacity="0"/>
</radialGradient>
<radialGradient id="paint22_radial_1220_2721" cx="0" cy="0" r="1" gradientUnits="userSpaceOnUse" gradientTransform="translate(39703.8 24868.4) rotate(23.5217) scale(2358.42 509.884)">
<stop stop-color="#7C7C7C"/>
<stop offset="1" stop-color="#7C7C7C" stop-opacity="0.33"/>
</radialGradient>
<linearGradient id="paint23_linear_1220_2721" x1="106545" y1="39872.9" x2="107417" y2="39795.3" gradientUnits="userSpaceOnUse">
<stop stop-color="#7C7C7C"/>
<stop offset="1" stop-color="#7C7C7C" stop-opacity="0.33"/>
</linearGradient>
<linearGradient id="paint24_linear_1220_2721" x1="98432.7" y1="239578" x2="135887" y2="303108" gradientUnits="userSpaceOnUse">
<stop stop-color="#B98309"/>
<stop offset="1" stop-color="#382605"/>
</linearGradient>
<linearGradient id="paint25_linear_1220_2721" x1="38396.7" y1="130553" x2="45635.3" y2="138066" gradientUnits="userSpaceOnUse">
<stop stop-color="#EBC40C"/>
<stop offset="1" stop-color="#EBC40C" stop-opacity="0"/>
</linearGradient>
<clipPath id="clip0_1220_2721">
<rect width="2500" height="2500" fill="white"/>
</clipPath>
</defs>
</svg>
