<svg width="2500" height="2500" viewBox="0 0 2500 2500" fill="none" xmlns="http://www.w3.org/2000/svg">
<path d="M0 1780.83H82.3608V1455.71L209.863 1739.24C224.902 1773.42 245.508 1785.7 285.889 1785.7C326.27 1785.7 346.069 1773.55 361.133 1739.24L488.647 1455.71V1780.95H571.021V1456.24C571.021 1424.57 558.325 1409.25 532.202 1401.34C469.641 1381.8 427.661 1398.7 408.667 1440.94L283.545 1720.76L162.354 1440.81C144.141 1398.58 101.379 1381.68 38.8184 1401.21C12.6709 1409.14 0 1424.46 0 1456.12V1780.83ZM639.478 1516.11H721.814V1695.31C721.045 1705.05 724.939 1727.9 770.056 1728.59C793.079 1728.96 947.717 1728.59 949.158 1728.59V1515.22H1031.68C1032.04 1515.22 1031.59 1806.16 1031.6 1807.4C1032.06 1879.16 942.566 1894.74 901.331 1895.95H641.272V1840.53L901.795 1840.52C954.797 1834.91 948.547 1808.57 948.547 1799.7V1778.09H773.499C692.053 1777.36 640.198 1741.8 639.551 1700.91C639.49 1697.25 641.309 1517.86 639.502 1516.09L639.478 1516.11Z" fill="#00618A"/>
<path d="M1095.17 1780.83H1331.96C1359.67 1780.83 1386.61 1775.03 1408.01 1764.98C1443.65 1748.63 1461.07 1726.45 1461.07 1697.4V1637.22C1461.07 1613.46 1441.27 1591.29 1402.48 1576.51C1381.88 1568.57 1356.54 1564.36 1331.99 1564.36H1232.2C1198.95 1564.36 1183.11 1554.33 1179.15 1532.16C1178.36 1529.52 1178.36 1527.28 1178.36 1524.76V1487.29C1178.36 1485.17 1178.36 1483.05 1179.15 1480.41C1183.11 1463.52 1191.82 1458.76 1221.12 1456C1223.5 1456 1226.66 1455.46 1229.05 1455.46H1464.26V1400.57H1233.01C1199.74 1400.57 1182.32 1402.68 1166.48 1407.43C1117.33 1422.75 1095.95 1447.16 1095.95 1489.4V1537.44C1095.95 1574.41 1137.94 1606.08 1208.4 1613.47C1216.33 1613.99 1224.24 1614.52 1232.15 1614.52H1317.69C1320.86 1614.52 1324.04 1614.52 1326.4 1615.06C1352.53 1617.17 1363.64 1621.92 1371.55 1631.41C1376.43 1636.3 1377.89 1640.94 1377.89 1646.06V1694.11C1377.89 1699.92 1373.94 1707.32 1366.02 1713.64C1358.89 1719.99 1347.01 1724.2 1331.16 1725.26C1327.99 1725.26 1325.62 1725.79 1322.46 1725.79H1095.17V1780.69V1780.83ZM1974.85 1685.27C1974.85 1741.77 2016.82 1773.44 2101.56 1779.78C2109.47 1780.39 2117.39 1780.74 2125.32 1780.83H2339.94V1725.92H2123.73C2075.43 1725.92 2057.2 1713.77 2057.2 1684.73V1400.68H1974.84V1685.25L1974.85 1685.27ZM1513.61 1688.13V1492.39C1513.61 1442.66 1548.52 1412.49 1617.57 1402.97C1624.93 1401.92 1632.36 1401.39 1639.79 1401.38H1796.13C1803.83 1401.39 1811.52 1401.92 1819.15 1402.97C1888.2 1412.49 1923.11 1442.64 1923.11 1492.39V1688.13C1923.11 1728.47 1908.28 1750.07 1874.1 1764.14L1955.22 1837.38H1859.59L1793.96 1778.13L1727.88 1782.32H1639.79C1624.72 1782.32 1608.85 1780.19 1591.38 1775.43C1538.89 1761.15 1513.61 1733.64 1513.61 1688.13ZM1602.51 1683.24C1602.51 1685.89 1603.31 1688.53 1604.1 1691.72C1608.98 1714.47 1630.29 1727.17 1662.7 1727.17H1737.52L1668.8 1665.12H1764.43L1824.24 1719.23C1835.29 1713.35 1842.55 1704.34 1845 1692.78C1845.79 1690.14 1845.79 1687.49 1845.79 1684.84V1497.16C1845.79 1495.05 1845.79 1492.28 1845 1489.75C1840.11 1468.6 1818.8 1456.43 1787.06 1456.43H1662.84C1626.22 1456.43 1602.54 1472.29 1602.54 1497.16V1683.39L1602.51 1683.24Z" fill="#E48E00"/>
<path d="M2412.4 1309.59C2361.78 1308.22 2323.1 1312.92 2290.04 1326.86C2280.64 1330.83 2265.66 1330.93 2264.12 1342.71C2269.29 1348.11 2270.11 1356.19 2274.19 1362.85C2282.09 1375.63 2295.43 1392.75 2307.31 1401.71C2320.3 1411.52 2333.68 1422.01 2347.63 1430.52C2372.41 1445.64 2400.07 1454.27 2423.93 1469.39C2437.99 1478.3 2451.95 1489.53 2465.67 1499.61C2472.45 1504.6 2477.03 1512.33 2485.82 1515.45V1514.01C2481.18 1508.11 2479.99 1500.01 2475.75 1493.87L2457.03 1475.15C2438.72 1450.74 2415.5 1429.53 2390.81 1411.8C2371.12 1397.66 2327.04 1378.57 2318.82 1355.64L2317.38 1354.2C2331.35 1352.62 2347.69 1347.58 2360.6 1344.13C2382.24 1338.34 2401.59 1339.82 2423.95 1334.06L2454.19 1325.42V1319.66C2442.88 1308.06 2434.83 1292.72 2422.51 1282.23C2390.28 1254.77 2355.09 1227.36 2318.87 1204.47C2298.78 1191.78 2273.95 1183.55 2252.65 1172.8C2245.48 1169.18 2232.9 1167.3 2228.17 1161.27C2216.99 1147.01 2210.9 1128.92 2202.27 1112.44C2184.2 1077.65 2166.46 1039.64 2150.44 1003.03C2139.51 978.069 2132.37 953.448 2118.77 931.048C2053.41 823.577 1983.03 758.709 1874.05 694.964C1850.85 681.414 1822.94 676.043 1793.42 669.048L1745.91 666.167C1736.24 662.139 1726.18 650.298 1717.1 644.561C1680.99 621.734 1588.38 572.137 1561.63 637.237C1544.75 678.411 1586.87 718.584 1601.94 739.458C1612.51 754.107 1626.06 770.501 1633.61 786.968C1638.57 797.784 1639.44 808.636 1643.69 820.086C1654.15 848.162 1663.26 878.96 1676.79 905.022C1683.63 918.206 1691.17 932.098 1699.83 943.89C1705.14 951.128 1714.23 954.314 1715.66 965.496C1706.78 977.947 1706.26 997.234 1701.26 1013.01C1678.76 1083.95 1687.24 1172.12 1719.97 1224.64C1730.02 1240.75 1753.66 1275.32 1786.19 1262.07C1814.64 1250.47 1808.17 1214.58 1816.43 1182.89C1818.26 1175.69 1817.14 1170.44 1820.75 1165.62V1167.06L1846.67 1218.88C1865.83 1249.76 1899.89 1282.05 1928.72 1303.84C1943.68 1315.13 1955.58 1334.66 1974.79 1341.27V1339.82H1973.35C1969.6 1333.97 1963.75 1331.56 1958.95 1326.89C1947.68 1315.84 1935.14 1302.1 1925.83 1289.46C1899.59 1253.84 1876.42 1214.87 1855.3 1174.29C1845.22 1154.91 1836.44 1133.54 1827.95 1113.82C1824.68 1106.22 1824.72 1094.73 1817.88 1090.79C1808.57 1105.24 1794.85 1116.91 1787.65 1133.98C1776.12 1161.25 1774.63 1194.5 1770.37 1229C1767.85 1229.9 1768.97 1229.28 1767.49 1230.44C1747.45 1225.6 1740.39 1204.96 1732.95 1187.25C1714.1 1142.45 1710.61 1070.35 1727.19 1018.82C1731.46 1005.49 1750.87 963.47 1743.02 951.153C1739.27 938.86 1726.9 931.622 1719.98 922.344C1711.44 910.748 1702.87 895.44 1696.95 882.037C1681.52 847.124 1674.32 807.94 1658.08 772.625C1650.32 755.755 1637.21 738.689 1626.42 723.797C1614.48 707.195 1601.11 694.939 1591.87 674.969C1588.57 667.828 1584.11 656.414 1588.99 649.053C1589.46 646.938 1590.52 645.001 1592.05 643.47C1593.58 641.938 1595.52 640.877 1597.63 640.411C1605.98 633.977 1629.25 642.547 1637.94 646.172C1661.01 655.767 1680.3 664.898 1699.85 677.85C1709.25 683.953 1718.74 696.111 1730.08 699.456H1743.02C1763.28 704.119 1785.99 700.921 1804.91 706.658C1838.38 716.827 1868.36 732.659 1895.61 749.847C1978.59 802.239 2046.42 876.824 2092.83 965.911C2100.31 980.23 2103.53 993.914 2110.11 1009.1C2123.38 1039.62 2140.09 1071.27 2153.3 1101.23C2166.48 1131.13 2179.3 1161.28 2197.93 1186.16C2207.72 1199.22 2245.53 1206.26 2262.71 1213.51C2274.76 1218.6 2294.48 1223.91 2305.9 1230.78C2327.69 1243.93 2348.8 1259.59 2369.25 1273.99C2379.47 1281.19 2410.88 1296.98 2412.44 1309.98L2412.4 1309.59Z" fill="#00618A"/>
<path fill-rule="evenodd" clip-rule="evenodd" d="M1768.92 761.102C1758.36 760.906 1750.9 762.249 1743.01 763.982V765.423H1744.45C1749.48 775.774 1758.36 782.427 1764.59 791.338L1778.99 821.563L1780.43 820.123C1789.34 813.836 1793.43 803.79 1793.37 788.445C1789.8 784.686 1789.27 779.974 1786.17 775.481C1782.06 769.5 1773.96 766.106 1768.9 761.077L1768.92 761.102Z" fill="#00618A"/>
<path fill-rule="evenodd" clip-rule="evenodd" d="M2378.6 1724.36C2378.6 1760.61 2407.25 1785.05 2439.29 1785.05C2471.34 1785.05 2499.99 1760.61 2499.99 1724.36C2499.99 1688.1 2471.34 1663.67 2439.29 1663.67C2407.25 1663.67 2378.6 1688.1 2378.6 1724.36ZM2486.39 1724.36C2486.39 1751.87 2465.36 1772.43 2439.27 1772.43C2412.9 1772.43 2392.15 1751.87 2392.15 1724.36C2392.15 1696.84 2412.88 1676.29 2439.27 1676.29C2465.33 1676.29 2486.39 1696.84 2486.39 1724.36ZM2455.63 1759H2469.21L2449.32 1728.58C2460 1727.45 2468.08 1722.26 2468.08 1709.64C2468.08 1695.55 2459.17 1689.74 2442.03 1689.74H2414.99V1759.01H2426.65V1729.07H2437.49L2455.62 1759.01L2455.63 1759ZM2426.65 1719.33V1699.43H2440.08C2447.03 1699.43 2455.46 1700.73 2455.46 1708.83C2455.46 1718.54 2447.85 1719.35 2439.1 1719.35H2426.65V1719.33Z" fill="#E48E00"/>
</svg>
