<svg width="2500" height="2500" viewBox="0 0 2500 2500" fill="none" xmlns="http://www.w3.org/2000/svg">
<path d="M1239.3 5.70312C606.232 5.70312 645.76 280.238 645.76 280.238L646.463 564.664H1250.59V650.057H406.515C406.515 650.057 1.41602 604.114 1.41602 1242.87C1.41602 1881.65 354.996 1859 354.996 1859H566.011V1562.58C566.011 1562.58 554.635 1209 913.947 1209H1513.13C1513.13 1209 1849.77 1214.44 1849.77 883.648V336.707C1849.77 336.707 1900.9 5.70312 1239.3 5.70312ZM906.184 196.974C920.46 196.961 934.598 199.764 947.79 205.221C960.982 210.678 972.968 218.683 983.062 228.778C993.157 238.872 1001.16 250.858 1006.62 264.05C1012.08 277.241 1014.88 291.38 1014.87 305.655C1014.88 319.931 1012.08 334.069 1006.62 347.261C1001.16 360.453 993.157 372.439 983.062 382.533C972.968 392.628 960.982 400.633 947.79 406.09C934.598 411.547 920.46 414.349 906.184 414.337C891.909 414.349 877.77 411.547 864.579 406.09C851.387 400.633 839.401 392.628 829.307 382.533C819.212 372.439 811.207 360.453 805.75 347.261C800.293 334.069 797.49 319.931 797.503 305.655C797.49 291.38 800.293 277.241 805.75 264.05C811.207 250.858 819.212 238.872 829.307 228.778C839.401 218.683 851.387 210.678 864.579 205.221C877.77 199.764 891.909 196.961 906.184 196.974Z" fill="#417198"/>
<path d="M1257.27 2486.47C1890.34 2486.47 1850.81 2211.93 1850.81 2211.93L1850.11 1927.51H1245.98V1842.12H2090.05C2090.05 1842.12 2495.15 1888.07 2495.15 1249.29C2495.15 610.519 2141.57 633.174 2141.57 633.174H1930.55V929.581C1930.55 929.581 1941.93 1283.16 1582.61 1283.16H983.433C983.433 1283.16 646.795 1277.72 646.795 1608.52V2155.47C646.795 2155.47 595.676 2486.47 1257.26 2486.47H1257.27ZM1590.39 2295.21C1576.11 2295.23 1561.97 2292.42 1548.78 2286.97C1535.59 2281.51 1523.6 2273.51 1513.51 2263.41C1503.42 2253.32 1495.41 2241.33 1489.95 2228.14C1484.5 2214.95 1481.69 2200.81 1481.71 2186.53C1481.69 2172.26 1484.49 2158.12 1489.95 2144.92C1495.41 2131.73 1503.41 2119.74 1513.51 2109.65C1523.6 2099.55 1535.59 2091.55 1548.78 2086.09C1561.97 2080.63 1576.11 2077.83 1590.39 2077.84C1604.66 2077.83 1618.8 2080.63 1631.99 2086.09C1645.18 2091.55 1657.17 2099.55 1667.27 2109.65C1677.36 2119.74 1685.36 2131.73 1690.82 2144.92C1696.28 2158.11 1699.08 2172.25 1699.07 2186.52C1699.08 2200.8 1696.28 2214.94 1690.82 2228.13C1685.36 2241.32 1677.36 2253.31 1667.27 2263.4C1657.17 2273.5 1645.18 2281.5 1631.99 2286.96C1618.8 2292.42 1604.66 2295.23 1590.39 2295.21Z" fill="#FEBE34"/>
</svg>
