<svg width="2500" height="2500" viewBox="0 0 2500 2500" fill="none" xmlns="http://www.w3.org/2000/svg">
<g clip-path="url(#clip0_1220_2722)">
<path d="M1917.57 1720.68C2222.89 1415.37 2273.64 971.13 2030.9 728.414C1788.2 485.724 1343.98 536.46 1038.67 841.749C733.364 1147.05 821.683 1730.33 925.354 1834.02C1009.13 1917.79 1612.28 2025.97 1917.57 1720.68Z" fill="#F89939"/>
<path d="M664.77 1279.52C487.645 1102.4 229.874 1072.91 89.0164 1213.76C-51.805 1354.59 -22.3624 1612.39 154.798 1789.49C331.958 1966.67 670.404 1915.42 730.515 1855.26C779.159 1806.69 841.948 1456.66 664.77 1279.52Z" fill="#3499CD"/>
<path d="M1275.92 1645.85C1244.62 1674.65 1217.17 1695.91 1193.58 1709.57C1169.99 1723.27 1147.49 1730.11 1126.08 1730.11C1101.45 1730.11 1081.58 1720.56 1066.52 1701.46C1051.43 1682.34 1043.91 1656.7 1043.91 1624.45C1043.91 1576.12 1054.38 1518.1 1075.33 1450.45C1096.25 1382.75 1121.72 1320.37 1151.63 1263.29L1239.33 1230.82C1242.08 1229.9 1244.17 1229.43 1245.56 1229.43C1252.22 1229.43 1257.71 1234.34 1261.93 1244.1C1266.2 1253.91 1268.34 1267.09 1268.34 1283.66C1268.34 1330.62 1257.53 1376.08 1235.87 1420.04C1214.22 1464.03 1180.39 1510.97 1134.36 1560.92C1132.52 1584.86 1131.6 1601.31 1131.6 1610.29C1131.6 1630.33 1135.27 1646.19 1142.64 1657.94C1150.01 1669.7 1159.79 1675.54 1171.99 1675.54C1184.44 1675.54 1197.67 1671.09 1211.71 1662.11C1225.73 1653.11 1247.14 1634.49 1275.91 1606.16V1645.85H1275.92ZM1143.68 1510.87C1172.91 1478.37 1196.65 1441.92 1214.82 1401.6C1233 1361.26 1242.07 1326.56 1242.07 1297.49C1242.07 1289.01 1240.82 1282.13 1238.31 1276.95C1235.77 1271.77 1232.53 1269.16 1228.62 1269.16C1220.14 1269.16 1207.74 1290.37 1191.51 1332.78C1175.27 1375.19 1159.33 1434.56 1143.68 1510.87Z" fill="#010101"/>
<path d="M1534.21 1645.85C1504.98 1674.65 1478.75 1695.91 1455.49 1709.57C1432.23 1723.27 1406.6 1730.11 1378.5 1730.11C1347.19 1730.11 1321.93 1720.1 1302.68 1700.09C1283.47 1680.03 1273.88 1653.7 1273.88 1621C1273.88 1572.21 1290.78 1528.07 1324.66 1488.59C1358.46 1449.1 1396 1429.37 1437.2 1429.37C1458.61 1429.37 1475.74 1434.91 1488.65 1445.95C1501.54 1457.01 1507.99 1471.5 1507.99 1489.46C1507.99 1537.12 1457.35 1575.77 1356.07 1605.47C1365.26 1650.34 1389.31 1672.8 1428.22 1672.8C1443.42 1672.8 1457.91 1668.72 1471.71 1660.57C1485.55 1652.38 1506.36 1634.23 1534.22 1606.17L1534.21 1645.85ZM1353.28 1581.99C1412.19 1565.4 1441.67 1534.8 1441.67 1490.14C1441.67 1468.05 1433.6 1457 1417.51 1457C1402.31 1457 1387.83 1468.55 1374.02 1491.71C1360.18 1514.84 1353.28 1544.91 1353.28 1581.99Z" fill="#010101"/>
<path d="M1902.97 1645.85C1866.14 1680.84 1839.78 1703.65 1823.91 1714.25C1808.03 1724.84 1792.84 1730.12 1778.32 1730.12C1741.95 1730.12 1724.81 1698.02 1726.88 1633.79C1703.86 1666.69 1682.61 1690.98 1663.16 1706.66C1643.72 1722.31 1623.65 1730.12 1602.9 1730.12C1582.67 1730.12 1565.47 1720.64 1551.29 1701.65C1537.11 1682.66 1530.07 1659.36 1530.07 1631.71C1530.07 1597.2 1539.55 1564.28 1558.52 1532.96C1577.53 1501.65 1601.87 1476.35 1631.56 1457.01C1661.25 1437.68 1687.52 1428 1710.28 1428C1739.06 1428 1759.21 1441.24 1770.72 1467.7L1841.29 1428.7H1860.66L1830.18 1529.85C1814.53 1580.74 1806.67 1615.62 1806.67 1634.49C1806.67 1654.28 1813.68 1664.18 1827.73 1664.18C1836.68 1664.18 1846.57 1659.41 1857.4 1649.84C1868.23 1640.28 1883.39 1625.72 1902.95 1606.16V1645.85H1902.97ZM1650.22 1664.86C1673.24 1664.86 1694.93 1645.24 1715.34 1606C1735.71 1566.74 1745.89 1530.52 1745.89 1497.38C1745.89 1484.51 1742.98 1474.42 1737.26 1467.18C1731.48 1459.91 1723.77 1456.3 1714.13 1456.3C1691.09 1456.3 1669.26 1475.86 1648.7 1515.01C1628.1 1554.15 1617.78 1590.17 1617.78 1623.06C1617.78 1635.51 1620.84 1645.58 1626.94 1653.29C1633.03 1661.01 1640.76 1664.86 1650.22 1664.86Z" fill="#010101"/>
<path d="M2160.91 1645.85C2103.13 1702.47 2058.58 1730.81 2027.28 1730.81C2013.22 1730.81 2001.36 1724.87 1991.71 1713.05C1982.07 1701.19 1977.21 1686.51 1977.21 1669C1977.21 1636.55 1994.61 1593.06 2029.36 1538.49C2012.31 1547.24 1993.69 1553.32 1973.42 1556.78C1958.46 1584.4 1934.97 1614.11 1902.98 1645.84H1895.06V1614.8C1913 1596.16 1929.23 1576.12 1943.74 1554.71C1923.91 1545.95 1914.03 1532.95 1914.03 1515.71C1914.03 1497.96 1920.05 1479.04 1932.17 1458.87C1944.25 1438.75 1960.87 1428.69 1982.07 1428.69C2000.03 1428.69 2008.99 1437.87 2008.99 1456.29C2008.99 1470.8 2003.81 1491.51 1993.44 1518.45C2031.64 1514.29 2065.02 1485.09 2093.58 1430.74L2124.99 1429.36L2092.88 1517.75C2079.54 1555.04 2070.9 1580.45 2067 1593.9C2063.09 1607.35 2061.12 1619.28 2061.12 1629.62C2061.12 1639.3 2063.37 1647.04 2067.84 1652.75C2072.33 1658.55 2078.39 1661.4 2085.98 1661.4C2094.26 1661.4 2102.22 1658.57 2109.81 1652.96C2117.4 1647.27 2134.44 1631.7 2160.92 1606.15V1645.85H2160.91Z" fill="#010101"/>
<path d="M2500 1645.85C2446.83 1702.05 2401.22 1730.12 2363.26 1730.12C2347.84 1730.12 2335.41 1724.71 2325.97 1713.88C2316.51 1703.07 2311.8 1688.58 2311.8 1670.4C2311.8 1645.77 2321.94 1608.12 2342.2 1557.5C2353.01 1530.33 2358.44 1513.04 2358.44 1505.7C2358.44 1498.33 2355.54 1494.64 2349.81 1494.64C2346.59 1494.64 2342.31 1496.26 2337.03 1499.46C2332.17 1502.68 2326.54 1507.21 2320.09 1512.95C2314.35 1518.23 2307.88 1524.68 2300.75 1532.25C2294.52 1538.75 2287.84 1546.11 2280.75 1554.37L2261.39 1576.83C2252.88 1587.18 2247.58 1598.1 2245.52 1609.62C2242.05 1629.18 2239.76 1647.16 2238.6 1663.52C2237.89 1675.69 2237.56 1692.13 2237.56 1712.89L2161.25 1730.81C2158.73 1699.74 2157.44 1676.6 2157.44 1661.43C2157.44 1624.37 2161.76 1589.25 2170.41 1556.11C2179.03 1522.94 2192.89 1485.67 2212.01 1444.22L2296.25 1428C2278.53 1475.67 2266.91 1513.17 2261.39 1540.55C2299.14 1498.43 2329.07 1469.27 2351.25 1453.02C2373.4 1436.78 2393.13 1428.71 2410.36 1428.71C2422.08 1428.71 2431.87 1433.12 2439.66 1441.97C2447.5 1450.82 2451.39 1461.94 2451.39 1475.22C2451.39 1497.3 2441.49 1533.68 2421.72 1584.34C2408.13 1619.08 2401.33 1641.63 2401.33 1652.04C2401.33 1665.9 2406.98 1672.82 2418.29 1672.82C2435.12 1672.82 2462.38 1650.6 2500 1606.17V1645.85Z" fill="#010101"/>
<path d="M1392.96 1117.9L1391.23 1118.4C1391.12 1118.11 1390.96 1117.83 1390.74 1117.55C1390.54 1117.27 1390.25 1117.04 1389.89 1116.86C1389.53 1116.68 1389.07 1116.59 1388.51 1116.59C1387.73 1116.59 1387.09 1116.77 1386.58 1117.13C1386.07 1117.48 1385.82 1117.92 1385.82 1118.46C1385.82 1118.94 1385.99 1119.32 1386.34 1119.6C1386.69 1119.88 1387.24 1120.11 1387.98 1120.3L1389.85 1120.76C1390.97 1121.03 1391.81 1121.45 1392.37 1122.01C1392.92 1122.57 1393.19 1123.29 1393.19 1124.17C1393.19 1124.89 1392.99 1125.53 1392.57 1126.1C1392.16 1126.67 1391.59 1127.12 1390.85 1127.44C1390.11 1127.77 1389.25 1127.94 1388.28 1127.94C1386.99 1127.94 1385.93 1127.66 1385.09 1127.1C1384.25 1126.54 1383.71 1125.73 1383.49 1124.66L1385.33 1124.2C1385.5 1124.88 1385.83 1125.38 1386.32 1125.72C1386.81 1126.06 1387.45 1126.23 1388.24 1126.23C1389.14 1126.23 1389.86 1126.04 1390.39 1125.66C1390.93 1125.27 1391.19 1124.81 1391.19 1124.26C1391.19 1123.83 1391.04 1123.46 1390.73 1123.17C1390.43 1122.87 1389.96 1122.64 1389.32 1122.49L1387.23 1122C1386.07 1121.73 1385.23 1121.31 1384.69 1120.73C1384.15 1120.15 1383.88 1119.43 1383.88 1118.56C1383.88 1117.85 1384.08 1117.22 1384.48 1116.68C1384.89 1116.13 1385.43 1115.7 1386.13 1115.39C1386.83 1115.08 1387.62 1114.92 1388.51 1114.92C1389.75 1114.92 1390.73 1115.19 1391.44 1115.74C1392.16 1116.29 1392.66 1117.01 1392.96 1117.9ZM1401.22 1127.94C1400.04 1127.94 1399.02 1127.66 1398.17 1127.1C1397.32 1126.54 1396.66 1125.78 1396.2 1124.8C1395.74 1123.82 1395.51 1122.7 1395.51 1121.44C1395.51 1120.17 1395.75 1119.04 1396.22 1118.06C1396.69 1117.08 1397.36 1116.31 1398.2 1115.76C1399.06 1115.2 1400.05 1114.92 1401.19 1114.92C1402.07 1114.92 1402.87 1115.09 1403.58 1115.41C1404.29 1115.74 1404.87 1116.2 1405.33 1116.79C1405.78 1117.38 1406.06 1118.07 1406.17 1118.86H1404.24C1404.09 1118.28 1403.76 1117.77 1403.25 1117.33C1402.75 1116.88 1402.07 1116.66 1401.22 1116.66C1400.46 1116.66 1399.8 1116.86 1399.24 1117.25C1398.67 1117.64 1398.23 1118.19 1397.92 1118.9C1397.6 1119.6 1397.45 1120.43 1397.45 1121.38C1397.45 1122.35 1397.6 1123.2 1397.91 1123.92C1398.22 1124.64 1398.66 1125.2 1399.22 1125.6C1399.79 1126 1400.45 1126.2 1401.22 1126.2C1401.72 1126.2 1402.18 1126.11 1402.59 1125.94C1403 1125.76 1403.34 1125.51 1403.63 1125.18C1403.91 1124.85 1404.11 1124.46 1404.24 1124H1406.17C1406.06 1124.75 1405.79 1125.41 1405.36 1126.01C1404.93 1126.6 1404.37 1127.07 1403.66 1127.42C1402.96 1127.76 1402.15 1127.94 1401.22 1127.94ZM1409 1127.67V1115.09H1410.93V1127.67H1409ZM1409.98 1112.99C1409.6 1112.99 1409.28 1112.86 1409.01 1112.6C1408.74 1112.34 1408.6 1112.04 1408.6 1111.68C1408.6 1111.31 1408.74 1111.01 1409.01 1110.75C1409.28 1110.49 1409.6 1110.36 1409.98 1110.36C1410.36 1110.36 1410.68 1110.49 1410.95 1110.75C1411.22 1111.01 1411.36 1111.31 1411.36 1111.68C1411.36 1112.04 1411.22 1112.34 1410.95 1112.6C1410.68 1112.86 1410.36 1112.99 1409.98 1112.99ZM1416.28 1123.08L1416.24 1120.69H1416.64L1422.15 1115.09H1424.54L1418.67 1121.02H1418.51L1416.28 1123.08ZM1414.47 1127.67V1110.89H1416.41V1127.67H1414.47ZM1422.47 1127.67L1417.56 1121.44L1418.93 1120.1L1424.93 1127.67H1422.47ZM1427.03 1127.67V1115.09H1428.96V1127.67H1427.03ZM1428.01 1112.99C1427.63 1112.99 1427.31 1112.86 1427.04 1112.6C1426.77 1112.34 1426.63 1112.04 1426.63 1111.68C1426.63 1111.31 1426.77 1111.01 1427.04 1110.75C1427.31 1110.49 1427.63 1110.36 1428.01 1110.36C1428.39 1110.36 1428.71 1110.49 1428.98 1110.75C1429.25 1111.01 1429.39 1111.31 1429.39 1111.68C1429.39 1112.04 1429.25 1112.34 1428.98 1112.6C1428.71 1112.86 1428.39 1112.99 1428.01 1112.99ZM1437.98 1115.09V1116.72H1431.46V1115.09H1437.98ZM1433.36 1112.07H1435.29V1124.07C1435.29 1124.61 1435.37 1125.02 1435.53 1125.3C1435.69 1125.56 1435.9 1125.75 1436.15 1125.84C1436.41 1125.93 1436.68 1125.97 1436.96 1125.97C1437.18 1125.97 1437.35 1125.96 1437.49 1125.94C1437.62 1125.91 1437.73 1125.89 1437.82 1125.87L1438.21 1127.61C1438.08 1127.66 1437.89 1127.71 1437.66 1127.76C1437.42 1127.81 1437.13 1127.84 1436.77 1127.84C1436.22 1127.84 1435.68 1127.72 1435.16 1127.49C1434.64 1127.25 1434.21 1126.89 1433.87 1126.41C1433.53 1125.93 1433.36 1125.32 1433.36 1124.59V1112.07Z" fill="white"/>
</g>
<defs>
<clipPath id="clip0_1220_2722">
<rect width="2500" height="1348.25" fill="white" transform="translate(0 575)"/>
</clipPath>
</defs>
</svg>
