<svg width="2184" height="2497" viewBox="0 0 2184 2497" fill="none" xmlns="http://www.w3.org/2000/svg">
<path d="M251 495.071L1155 277L1928 495.071L2184 1161.99V1376.5L2092 1848.74L251 1987V495.071Z" fill="white"/>
<path d="M671.153 1527.51C631.483 1552.31 571.713 1592.51 525.474 1636.23C449.563 1707.91 433.678 1807.36 473.723 1830.59C510.766 1852.06 597.247 1826.51 659.141 1758.99C724.098 1688.11 750.887 1598.26 723.22 1496.26C719.969 1498.2 716.779 1500.14 713.648 1501.95L713.716 1502.1L709.518 1504.47C693.369 1514.11 680.171 1522.07 671.153 1527.5V1527.51ZM1785.94 1495.32C1763.47 1544.17 1762.34 1559.87 1769.17 1564.77C1801.77 1553.06 1855.72 1524.83 1856.14 1449.17C1856.21 1437.84 1853.71 1425.69 1849.7 1412.98C1814.84 1443.85 1794.75 1476.16 1785.94 1495.32ZM2135.81 1347.68C2048.7 1337.53 1980.73 1349.75 1927.99 1371.72C1937.75 1397.15 1945.26 1423.62 1946.32 1450.3C1948.77 1508.85 1908.47 1552.18 1866.47 1583.12C1841.94 1601.15 1815.84 1613.18 1793.93 1620.44C1776.42 1627.81 1753.14 1635.45 1736.61 1632.08C1700.18 1624.68 1680.79 1592.32 1705.58 1520.94C1718.96 1482.31 1757.57 1423.51 1819.9 1372.85C1805.7 1343.6 1789.86 1313.81 1781.79 1286.43C1765.89 1232.46 1761.09 1199.84 1761.09 1199.84C1761.09 1199.84 1709.71 1306.36 1643.43 1403.22C1639.61 1408.85 1635.8 1414.36 1631.98 1419.87C1645 1450.13 1655.25 1482.12 1656.64 1514.37C1659.08 1572.92 1633.73 1617.18 1591.68 1648.05C1568.91 1664.84 1544.62 1676.43 1523.78 1683.81C1510.45 1689.62 1483.35 1699.2 1444.8 1701.78C1423.72 1703.22 1403.44 1701.92 1392.12 1693.33C1376.53 1681.56 1374.66 1667.02 1382.73 1647.18C1389.55 1630.32 1440.61 1572.04 1483.42 1521C1494.83 1507.34 1505.88 1493.4 1516.58 1479.18L1516.34 1478.61C1516.34 1478.61 1524.09 1468.6 1536.67 1451.13C1521.03 1417.43 1501.19 1382.37 1491.87 1350.57C1475.97 1296.59 1471.15 1263.97 1471.15 1263.97C1471.15 1263.97 1419.08 1397.47 1364.83 1504.03C1322.85 1586.57 1294.8 1636.59 1282.17 1658.52L1282.04 1659.4C1282.04 1659.4 1280.16 1662.6 1276.91 1667.6L1274.47 1671.67L1274.41 1671.29C1260.32 1692.09 1228.72 1732.83 1197.31 1732.83C1111.08 1732.83 1142.74 1557.7 1142.74 1557.7C1142.74 1557.7 1117.53 1622.58 1089.11 1678.24C1065.96 1723.63 1044.87 1762.09 998.753 1762.09C985.487 1762.09 964.458 1761.71 946.994 1745.11C907.384 1707.48 877.098 1611.92 883.036 1537.91C888.103 1474.99 897.803 1431.39 911.069 1395.03C884.555 1409.46 858.27 1424.3 832.223 1439.56L789.414 1464.78L790.796 1467.29C826.209 1535.8 835.662 1685.89 758.437 1801.09C681.22 1916.37 537.477 1986.5 397.428 1947.56C352.238 1934.97 283.971 1841.49 342.854 1711.18C394.792 1596.27 602.366 1487.64 657.068 1460.53L672.083 1452.25C563.02 1356.83 290.668 1228.09 252.499 1030.35C241.733 974.679 267.83 841.549 431.28 688.524C568.761 559.839 760.006 461.277 936.672 398.47C1233.47 292.973 1547.07 355.2 1595.31 544.44C1642.74 730.541 1481.3 953.147 1274.53 1033.17C1089.93 1104.61 937.294 1093.28 874.59 1072.69C803.311 1049.27 761.508 1002.24 751.313 975.686C747.303 965.287 740.41 947.823 751.313 941.817C758.002 938.114 760.689 939.002 778.587 958.786C795.616 977.572 864.071 1027.97 994.112 1013.39C1335.36 975.132 1540.92 709.81 1475.97 567.039C1430.48 467.113 1167.46 422.025 838.852 585.893C437.721 785.883 415.95 950.758 412.512 1013.38C403.119 1185.64 624.957 1276.25 744.991 1404.36L749.615 1409.43C772.078 1397.04 795.804 1383.95 819.077 1371.18C867.108 1344.79 915.17 1318.47 963.263 1292.2C1005.51 1230.8 1091.23 1163.03 1153.13 1163.03C1252.06 1163.03 1218.08 1305.23 1218.08 1305.23C1218.08 1305.23 1220.09 1298.73 1222.78 1298.66C1225.59 1298.59 1236.49 1279.93 1267.03 1291.07C1298.44 1302.6 1291.3 1324.65 1291.49 1326.9C1291.87 1331.27 1254.38 1457.69 1238.81 1538.79C1231.35 1577.49 1235.67 1605.68 1237.87 1605.68C1240.93 1605.68 1247.19 1595.83 1253.01 1585.26L1252.88 1584.95C1252.88 1584.95 1257.26 1576.93 1264.59 1562.53L1266.03 1559.52L1266.09 1559.66C1278.22 1535.73 1289.82 1511.53 1300.88 1487.08C1328.35 1426.54 1433.16 1192.77 1442.05 1166.92C1450.94 1141.06 1455.57 1114.32 1459.95 1102.85C1464.27 1091.4 1501.32 1082.75 1544.62 1083.07C1587.92 1083.38 1592.32 1101.86 1592.61 1105.68C1592.93 1109.49 1572.03 1160.79 1567.21 1197.04C1562.46 1233.3 1567.03 1251.38 1570.97 1281.82C1573.54 1301.72 1585.99 1326.97 1600.7 1355.57C1645.51 1282.31 1724.34 1142.18 1731.92 1102.92C1737.11 1076.06 1745.43 1050.33 1749.82 1038.85C1754.2 1027.39 1791.19 1018.76 1834.48 1019.07C1877.79 1019.39 1882.16 1037.86 1882.48 1041.68C1882.8 1045.5 1861.83 1096.79 1857.07 1133.05C1852.31 1169.23 1856.89 1187.39 1860.83 1217.83C1864.21 1243.87 1884.36 1278.87 1904.33 1318.69C1958.83 1291.83 2022.97 1273.8 2098.07 1273.43C2129.17 1273.24 2165.28 1276.36 2183.93 1282.18V683.141C2183.93 640.877 2162.27 601.923 2125.67 580.826L1148.44 15.9973C1130.54 5.62842 1110.22 0.168213 1089.53 0.168213C1068.84 0.168213 1048.51 5.62842 1030.61 15.9973L56.0759 580.553C19.528 601.659 0 640.664 0 682.859V1812.99C0 1855.19 19.6475 1894.2 56.1356 1915.3L1032.24 2480.28C1050.05 2490.68 1070.31 2496.16 1090.93 2496.16C1111.56 2496.16 1131.82 2490.68 1149.63 2480.28L2126.18 1915.29C2162.71 1894.13 2184 1855.17 2184 1812.99V1356.26C2171.6 1352.61 2153.46 1349.73 2135.81 1347.67V1347.68ZM1084.48 1288.49C1063.52 1311.97 1027.79 1372.53 1011.08 1423.2C977.852 1523.81 992.244 1626.07 1015.77 1632.22C1043.24 1639.41 1088.31 1504.91 1109.88 1452.31C1123.4 1419.36 1175.97 1273.16 1164.46 1253.63C1155.46 1238.35 1118.22 1250.69 1084.48 1288.5V1288.49ZM1464.66 1627.63C1464.66 1627.63 1458.03 1633.91 1460.9 1635.65C1464.78 1637.97 1473.17 1634.96 1482.3 1630.2C1508.15 1613.93 1566.16 1573.35 1566.29 1513.3C1566.29 1511.54 1566.22 1509.85 1566.1 1508.04C1554.11 1523.76 1541.93 1539.33 1529.55 1554.74C1511.28 1577.48 1464.66 1627.63 1464.66 1627.63Z" fill="url(#paint0_linear_704_149)"/>
<defs>
<linearGradient id="paint0_linear_704_149" x1="0" y1="0.168213" x2="1706.51" y2="2019.37" gradientUnits="userSpaceOnUse">
<stop stop-color="#8844EE"/>
<stop offset="1" stop-color="#B07DFB"/>
</linearGradient>
</defs>
</svg>
